<?xml version="1.0" encoding="UTF-8"?>
<svg version="1.1" xmlns="http://www.w3.org/2000/svg" width="2560" height="960">
<path d="M0 0 C0.74668945 0.20367188 1.49337891 0.40734375 2.26269531 0.6171875 C37.895373 10.52279674 66.87760956 35.11390794 85.234375 66.8046875 C88.70921302 73.01274302 91.22912249 78.63640718 93.0625 85.5625 C94.49190702 89.80783884 95.24562895 91.52803943 99.078125 93.92578125 C102.28153549 95.2797065 105.5893116 96.28498792 108.91210938 97.30175781 C126.01680946 103.02199194 140.21907977 114.67896296 153 127 C153.64324219 127.59167969 154.28648437 128.18335938 154.94921875 128.79296875 C173.86310756 146.64873791 185.97431851 172.79223968 191 198 C191.22429688 199.05316406 191.44859375 200.10632813 191.6796875 201.19140625 C197.89020248 235.85969191 189.80018898 273.84170673 170 303 C146.75325525 334.90837357 114.58315948 355.92766539 75.4453125 362.4921875 C60.09955141 364.40853521 44.67290501 364.13441853 29.23795438 364.10139394 C25.77468138 364.09506883 22.31140716 364.09454946 18.84812927 364.09336853 C12.31437467 364.09028186 5.78063715 364.08210504 -0.75310999 364.07201904 C-8.20192317 364.06077434 -15.65073723 364.05532656 -23.0995568 364.05032361 C-38.39971437 364.03991967 -53.69985497 364.02237278 -69 364 C-68.77009369 364.6779361 -68.54018738 365.35587219 -68.30331421 366.05435181 C-67.24801577 369.17302618 -66.198197 372.29351955 -65.1484375 375.4140625 C-64.7867749 376.48019775 -64.4251123 377.54633301 -64.05249023 378.64477539 C-61.02742081 387.65789557 -58.59257401 396.62681235 -57 406 C-56.88430664 406.680625 -56.76861328 407.36125 -56.64941406 408.0625 C-48.69225749 457.93049612 -61.39351388 510.12671509 -90.59667969 551.07861328 C-93.86828609 555.55800479 -97.34269104 559.82785962 -101 564 C-101.71542969 564.825 -102.43085937 565.65 -103.16796875 566.5 C-105.40794498 569.0373182 -107.69065751 571.52570448 -110 574 C-110.79664063 574.86238281 -111.59328125 575.72476563 -112.4140625 576.61328125 C-139.6962024 605.09056021 -177.591324 622.83224951 -216 630 C-217.12148438 630.22558594 -218.24296875 630.45117188 -219.3984375 630.68359375 C-233.04460303 632.98976392 -247.20740562 632.17399682 -261 632 C-261.04753418 632.85255371 -261.09506836 633.70510742 -261.14404297 634.58349609 C-261.67322213 643.03762524 -262.65988767 651.28437045 -264.125 659.625 C-264.45213989 661.49128052 -264.45213989 661.49128052 -264.78588867 663.39526367 C-274.37078274 716.26376694 -293.98598716 768.18074088 -331.58349609 807.51611328 C-332.52669288 808.50417775 -333.4645589 809.49735893 -334.39697266 810.49560547 C-351.40591926 828.67595082 -372.82529255 842.06578579 -396 851 C-396.66725098 851.26119629 -397.33450195 851.52239258 -398.02197266 851.79150391 C-420.39205273 860.37580342 -444.01157096 863.22979245 -467.8125 863.25 C-469.04679749 863.25151062 -469.04679749 863.25151062 -470.30603027 863.25305176 C-483.09899251 863.24247238 -495.44071791 862.60796907 -508 860 C-508.71881348 859.86078125 -509.43762695 859.7215625 -510.17822266 859.578125 C-555.35248522 850.72966369 -596.85324853 824.08133141 -623 786 C-623.42120117 785.39607422 -623.84240234 784.79214844 -624.27636719 784.16992188 C-659.95969433 732.65910295 -676.61475505 666.68582864 -677.34844971 604.46643066 C-677.36587604 603.05269421 -677.38876756 601.6390124 -677.41766357 600.22546387 C-677.63572177 588.18504718 -675.73554909 579.39807203 -667.98046875 570.0390625 C-661.31058651 563.17184647 -652.68663387 559.01298916 -643.08193111 558.61523914 C-641.27289739 558.59552739 -639.46364193 558.59177295 -637.65452576 558.60127258 C-636.14841086 558.59130234 -636.14841086 558.59130234 -634.61186939 558.58113068 C-631.26775276 558.56256821 -627.92399606 558.56510147 -624.57983398 558.56762695 C-622.17459104 558.5586057 -619.76935269 558.54827759 -617.36412048 558.53674316 C-611.52393338 558.51204692 -605.6838354 558.50092751 -599.84360086 558.49586574 C-593.04420344 558.48923474 -586.24489524 558.4657546 -579.44554246 558.44127061 C-567.32137806 558.39805643 -555.19721877 558.36805907 -543.07299805 558.34643555 C-531.29986051 558.32540973 -519.52676478 558.29812068 -507.75366211 558.26245117 C-506.6639685 558.25915293 -506.6639685 558.25915293 -505.55226087 558.25578807 C-501.90758287 558.24471801 -498.26290527 558.23352528 -494.61822784 558.22227156 C-464.41218741 558.12916253 -434.20612995 558.05775062 -404 558 C-404.34299794 557.51967253 -404.68599588 557.03934505 -405.0393877 556.5444622 C-406.61402842 554.33609675 -408.18459677 552.12486463 -409.75512695 549.91357422 C-410.29464241 549.1581987 -410.83415787 548.40282318 -411.39002228 547.6245575 C-415.83701644 541.35355995 -419.68578278 534.97823954 -423.1875 528.125 C-423.77063965 526.98861084 -424.3537793 525.85222168 -424.95458984 524.68139648 C-447.59560933 479.18989212 -451.04186087 425.43359663 -435.4375 377.1875 C-424.15005732 343.83421875 -403.90038336 311.11170569 -376 289 C-375.07316406 288.2471875 -374.14632813 287.494375 -373.19140625 286.71875 C-364.89941936 280.08801577 -356.13634154 274.3933593 -347 269 C-346.42121094 268.65227539 -345.84242188 268.30455078 -345.24609375 267.94628906 C-326.56717685 256.84078452 -305.34945755 249.69414139 -284 246 C-282.98663574 245.81743652 -281.97327148 245.63487305 -280.92919922 245.44677734 C-270.82004689 243.79645345 -260.84020731 243.60121269 -250.625 243.625 C-249.74460052 243.62554382 -248.86420105 243.62608765 -247.9571228 243.62664795 C-224.74051553 243.69242856 -202.64557951 247.34424928 -180.84655762 255.55174255 C-180.12621086 255.82270972 -179.40586411 256.09367689 -178.66368866 256.37285519 C-178.1146714 256.57981297 -177.56565414 256.78677076 -177 257 C-176.99761165 256.33906499 -176.99522329 255.67812998 -176.99276257 254.99716663 C-176.93328512 238.81669215 -176.85753085 222.63638062 -176.76428509 206.45606709 C-176.71957072 198.63096284 -176.68010209 190.80590164 -176.65356445 182.98071289 C-176.63038475 176.1497948 -176.59677037 169.31901579 -176.55129844 162.48820847 C-176.52763125 158.88085001 -176.50873113 155.27362697 -176.50238609 151.66619301 C-176.42793558 114.35799985 -171.21799755 78.88117491 -147 49 C-146.52272461 48.40606445 -146.04544922 47.81212891 -145.55371094 47.20019531 C-111.18428367 4.81496676 -53.15690019 -15.28880219 0 0 Z M-86.6875 91.75 C-96.67784724 103.83737767 -102.13233875 118.22430631 -102.12025452 133.90963745 C-102.12110894 134.58038303 -102.12196337 135.25112862 -102.12284368 135.94219983 C-102.12448287 138.17617524 -102.11900283 140.41007455 -102.11352539 142.64404297 C-102.11324316 144.25081887 -102.11340196 145.8575949 -102.1139679 147.46437073 C-102.11425445 151.81719373 -102.10838058 156.1699891 -102.10139394 160.52280569 C-102.09513686 165.07518975 -102.09455474 169.62757446 -102.09336853 174.17996216 C-102.09026216 182.79647329 -102.08205812 191.4129717 -102.07201904 200.02947724 C-102.06083635 209.84079435 -102.05534202 219.65211208 -102.05032361 229.46343398 C-102.03987494 249.64229641 -102.02228893 269.8211474 -102 290 C-81.02381482 290.09371367 -60.04766449 290.1641111 -39.07131195 290.20724869 C-29.33018467 290.22781645 -19.58918797 290.25582554 -9.84814453 290.30175781 C-1.35135793 290.34180367 7.14533403 290.36747479 15.64221239 290.37635398 C20.13538877 290.38153887 24.62829457 290.39360251 29.12138367 290.42292023 C33.36330231 290.4503709 37.60484277 290.45838615 41.84684181 290.45243073 C43.39142231 290.45351787 44.93601743 290.46129338 46.48052025 290.4768219 C65.99373107 290.66313888 84.49411093 286.02400165 98.94091797 272.18481445 C106.84462481 264.29855212 111.85415947 256.38972763 116 246 C116.34289062 245.15050781 116.68578125 244.30101562 117.0390625 243.42578125 C121.5599883 229.96863296 120.1277714 214.02035999 115 201 C114.59910156 199.97648438 114.19820312 198.95296875 113.78515625 197.8984375 C106.56099258 181.69118336 92.30088397 170.2651762 76 164 C66.45460958 160.63026739 56.78763254 160.57003277 46.75683594 160.46557617 C36.47086682 160.27241616 36.47086682 160.27241616 32 157 C29.37714781 153.36016361 28.63227022 150.8462166 28.62890625 146.38671875 C28.60739502 144.77349731 28.60739502 144.77349731 28.58544922 143.12768555 C28.57787598 141.99242432 28.57030273 140.85716309 28.5625 139.6875 C28.02719176 117.53644512 22.16765366 100.58016624 6 85 C-6.14401726 73.98298434 -22.62986975 68.53111656 -38.86328125 68.796875 C-57.58136292 70.00900482 -73.86755335 78.08292031 -86.6875 91.75 Z M-339 356 C-357.43831581 376.5180585 -369.98300407 403.14315493 -371 431 C-371.03996094 432.03898437 -371.07992188 433.07796875 -371.12109375 434.1484375 C-371.51027981 454.52347244 -367.37198797 473.88082325 -358 492 C-357.53851563 492.93070313 -357.07703125 493.86140625 -356.6015625 494.8203125 C-343.87921863 519.49181913 -323.52997731 535.44714819 -300 549 C-299.26587891 549.42297363 -298.53175781 549.84594727 -297.77539062 550.28173828 C-294.74103581 552.02556283 -291.70121283 553.75817494 -288.65234375 555.4765625 C-286.72711766 556.58236247 -284.84731826 557.76845449 -283 559 C-280.13981133 559.19693407 -277.37972693 559.27993336 -274.51953125 559.265625 C-273.25105598 559.26849518 -273.25105598 559.26849518 -271.95695496 559.27142334 C-270.15888168 559.27278581 -268.36079858 559.26908508 -266.56274414 559.26074219 C-263.86776241 559.25021585 -261.17347415 559.26054415 -258.47851562 559.2734375 C-244.81169871 559.28566806 -231.20169216 558.69912957 -218 554.8125 C-217.25782227 554.59819336 -216.51564453 554.38388672 -215.75097656 554.16308594 C-184.00199823 544.62355016 -158.04302135 522.77618484 -142.25 493.75 C-127.43133365 465.42265801 -124.80237875 432.93283297 -133.84790039 402.38549805 C-143.28798164 372.52362163 -164.06006132 346.44266642 -191.86621094 331.76757812 C-241.8401615 306.45262602 -299.87317827 315.11364431 -339 356 Z M-601 632 C-598.40321312 651.21878604 -598.40321312 651.21878604 -594.3125 670 C-594.14081299 670.67256836 -593.96912598 671.34513672 -593.79223633 672.03808594 C-589.12134244 690.27620257 -582.90490889 707.40618868 -574 724 C-573.51015625 724.96808594 -573.0203125 725.93617188 -572.515625 726.93359375 C-558.75105421 753.57345127 -536.05202323 775.1030524 -507.24072266 784.33886719 C-477.34196736 793.16059625 -441.98634903 792.76688875 -414 778 C-412.63681641 777.32324219 -412.63681641 777.32324219 -411.24609375 776.6328125 C-404.48054463 773.15123646 -398.7714602 768.93351574 -393 764 C-392.26136719 763.40703125 -391.52273438 762.8140625 -390.76171875 762.203125 C-354.55101833 732.10257829 -339.93782903 676.44046125 -335 632 C-422.78 632 -510.56 632 -601 632 Z " fill="#9B3D8C" transform="translate(677,4)"/>
<path d="M0 0 C0.94617188 0.50789063 1.89234375 1.01578125 2.8671875 1.5390625 C10.02801275 5.3011102 17.21566036 8.6888305 24.875 11.3125 C25.51937012 11.54211426 26.16374023 11.77172852 26.82763672 12.00830078 C43.15802823 17.35272146 60.12760036 17.51052333 77.125 17.6875 C79.3554876 17.72076422 81.58595717 17.75526183 83.81640625 17.79101562 C89.21081286 17.8748563 94.60523995 17.94362615 100 18 C104.82539041 31.82795774 109.54154134 45.53059755 112 60 C112.17354004 61.0209375 112.17354004 61.0209375 112.35058594 62.0625 C120.30774251 111.93049612 107.60648612 164.12671509 78.40332031 205.07861328 C75.13171391 209.55800479 71.65730896 213.82785962 68 218 C66.92685547 219.2375 66.92685547 219.2375 65.83203125 220.5 C63.59205502 223.0373182 61.30934249 225.52570448 59 228 C58.20335937 228.86238281 57.40671875 229.72476563 56.5859375 230.61328125 C29.3037976 259.09056021 -8.591324 276.83224951 -47 284 C-48.12148438 284.22558594 -49.24296875 284.45117188 -50.3984375 284.68359375 C-64.04460303 286.98976392 -78.20740562 286.17399682 -92 286 C-92.04753418 286.85255371 -92.09506836 287.70510742 -92.14404297 288.58349609 C-92.67322213 297.03762524 -93.65988767 305.28437045 -95.125 313.625 C-95.45213989 315.49128052 -95.45213989 315.49128052 -95.78588867 317.39526367 C-105.37078274 370.26376694 -124.98598716 422.18074088 -162.58349609 461.51611328 C-163.52669288 462.50417775 -164.4645589 463.49735893 -165.39697266 464.49560547 C-182.40591926 482.67595082 -203.82529255 496.06578579 -227 505 C-227.66725098 505.26119629 -228.33450195 505.52239258 -229.02197266 505.79150391 C-251.39205273 514.37580342 -275.01157096 517.22979245 -298.8125 517.25 C-300.04679749 517.25151062 -300.04679749 517.25151062 -301.30603027 517.25305176 C-314.09899251 517.24247238 -326.44071791 516.60796907 -339 514 C-339.71881348 513.86078125 -340.43762695 513.7215625 -341.17822266 513.578125 C-386.35248522 504.72966369 -427.85324853 478.08133141 -454 440 C-454.42120117 439.39607422 -454.84240234 438.79214844 -455.27636719 438.16992188 C-490.95969433 386.65910295 -507.61475505 320.68582864 -508.34844971 258.46643066 C-508.36587604 257.05269421 -508.38876756 255.6390124 -508.41766357 254.22546387 C-508.63572177 242.18504718 -506.73554909 233.39807203 -498.98046875 224.0390625 C-491.40198451 216.23636275 -482.40719014 212.88678565 -471.65069962 212.63644314 C-468.68134832 212.61547523 -465.71302861 212.63258325 -462.74371338 212.6526947 C-461.08704074 212.65281877 -459.43036755 212.65161501 -457.77369666 212.64920336 C-453.23560457 212.64638341 -448.69774162 212.66221551 -444.15969515 212.68112123 C-439.25977255 212.69821943 -434.35984769 212.69786601 -429.4598999 212.6995697 C-420.97223686 212.70481449 -412.48464928 212.72082045 -403.99701691 212.74394035 C-391.7112393 212.77721296 -379.42549249 212.79194073 -367.1396763 212.80179507 C-347.18717126 212.81811405 -327.23470307 212.84636575 -307.28222656 212.88354492 C-306.08849897 212.88576605 -304.89477138 212.88798717 -303.66487023 212.89027561 C-298.82841021 212.89929071 -293.99195022 212.90832659 -289.15549029 212.91739174 C-275.85008262 212.9422124 -262.5446714 212.96468475 -249.23925781 212.98608398 C-247.45267161 212.98896245 -247.45267161 212.98896245 -245.62999275 212.99189907 C-225.75612354 213.02363087 -205.88225084 213.04734182 -186.00836539 213.06616598 C-173.75700311 213.07822336 -161.50569768 213.0979861 -149.25436541 213.12777246 C-140.8561287 213.14779994 -132.45790015 213.1608488 -124.05964306 213.16846316 C-119.21755265 213.17312907 -114.37552693 213.18112662 -109.53346252 213.19803619 C-105.09457341 213.21349598 -100.65577071 213.21957321 -96.21685573 213.21843595 C-94.61730119 213.21966577 -93.01774461 213.22426987 -91.41821197 213.23273002 C-82.10946595 213.27986549 -73.17551275 212.75478755 -64 211 C-63.07413409 210.82316884 -62.14826817 210.64633767 -61.19434571 210.46414798 C-28.95058016 204.09596397 -0.12994148 187.44960281 18.55078125 159.82421875 C36.06011101 132.9654495 43.75893758 100.84074594 37.47436523 69.03491211 C31.95978428 44.26899227 20.38503366 21.99189598 1.58203125 4.76953125 C0 3 0 3 0 0 Z M-432 286 C-429.40321312 305.21878604 -429.40321312 305.21878604 -425.3125 324 C-425.14081299 324.67256836 -424.96912598 325.34513672 -424.79223633 326.03808594 C-420.12134244 344.27620257 -413.90490889 361.40618868 -405 378 C-404.51015625 378.96808594 -404.0203125 379.93617188 -403.515625 380.93359375 C-389.75105421 407.57345127 -367.05202323 429.1030524 -338.24072266 438.33886719 C-308.34196736 447.16059625 -272.98634903 446.76688875 -245 432 C-243.63681641 431.32324219 -243.63681641 431.32324219 -242.24609375 430.6328125 C-235.48054463 427.15123646 -229.7714602 422.93351574 -224 418 C-223.26136719 417.40703125 -222.52273438 416.8140625 -221.76171875 416.203125 C-185.55101833 386.10257829 -170.93782903 330.44046125 -166 286 C-253.78 286 -341.56 286 -432 286 Z " fill="#A96B55" transform="translate(508,350)"/>
<path d="M0 0 C7.82875508 -0.0743381 15.65730317 -0.12869206 23.48632812 -0.16479492 C26.14796423 -0.17815167 28.80911286 -0.20029814 31.47070312 -0.22631836 C35.30344752 -0.26284115 39.1358629 -0.27975892 42.96875 -0.29296875 C44.15239136 -0.30845261 45.33603271 -0.32393646 46.55554199 -0.33988953 C55.61635583 -0.34172175 63.15030364 0.9818515 69.953125 7.40234375 C74.9745154 13.77490981 77.80929807 21.60370191 81 29 C81.94234796 31.15770951 82.8850745 33.3152537 83.828125 35.47265625 C85.70447716 39.78055849 87.57128108 44.09239807 89.42871094 48.40847778 C93.79951421 58.56466481 98.23801715 68.69057564 102.6875 78.8125 C103.45558399 80.56053915 104.22365028 82.30858607 104.99169922 84.05664062 C106.93931877 88.48880656 108.88760722 92.92067816 110.83605957 97.35247803 C114.24625578 105.10937792 117.65504099 112.86689733 121.0625 120.625 C121.43490814 121.47285065 121.80731628 122.32070129 122.19100952 123.19424438 C127.99656537 136.41376126 133.77495968 149.64494472 139.53741455 162.88330078 C143.67557831 172.38963606 147.82552303 181.89064365 151.99609375 191.3828125 C152.61775925 192.79774994 152.61775925 192.79774994 153.25198364 194.24127197 C155.26287681 198.81709349 157.27517731 203.39229144 159.2890625 207.96679688 C160.01432936 209.61588258 160.7395901 211.26497098 161.46484375 212.9140625 C161.79423447 213.66116486 162.12362518 214.40826721 162.46299744 215.17800903 C162.76903397 215.87417328 163.0750705 216.57033752 163.39038086 217.28759766 C163.65443222 217.88722321 163.91848358 218.48684875 164.1905365 219.10464478 C165.16575031 221.38810361 166.08471162 223.69195708 167 226 C173.45336407 211.18228846 179.56408794 196.2496173 185.51171875 181.22265625 C186.40328094 178.97673177 187.29515468 176.73093095 188.18731689 174.48524475 C190.06032416 169.76961755 191.93188955 165.05342223 193.80221558 160.33673096 C198.63627054 148.14712347 203.4811926 135.96183559 208.328125 123.77734375 C209.03698255 121.99516701 209.03698255 121.99516701 209.76016045 120.17698669 C217.89946401 99.7180967 226.1085637 79.29006581 234.4855957 58.92724609 C235.27303617 57.01273107 236.06039338 55.09818181 236.84765625 53.18359375 C237.39169853 51.8611969 237.39169853 51.8611969 237.94673157 50.51208496 C240.26370886 44.85865903 242.49780566 39.17796847 244.68359375 33.47265625 C245.24020048 32.03169375 245.79691786 30.59077398 246.35375977 29.14990234 C247.31067796 26.67146152 248.24124891 24.18863932 249.15600586 21.69384766 C252.50826238 12.97298036 256.66021541 5.80945804 265.38769531 1.77514648 C271.89679162 -0.66282994 278.22852267 -0.50316729 285.1015625 -0.390625 C287.07798233 -0.38213531 287.07798233 -0.38213531 289.09432983 -0.37347412 C292.56332892 -0.35834783 296.03163656 -0.31918309 299.50036621 -0.2746582 C303.05353446 -0.23342063 306.60681665 -0.21540294 310.16015625 -0.1953125 C317.10708004 -0.15267216 324.05343543 -0.08243299 331 0 C331 4.95 331 9.9 331 15 C328.63134766 15.07347656 328.63134766 15.07347656 326.21484375 15.1484375 C324.12237947 15.22350348 322.02993237 15.29904964 319.9375 15.375 C318.89916016 15.4059375 317.86082031 15.436875 316.79101562 15.46875 C307.17557639 15.50509289 307.17557639 15.50509289 299.125 19.9375 C293.42985953 30.37859086 295.85859795 46.09855706 295.87060547 57.63671875 C295.86924887 59.82736236 295.86746749 62.01800573 295.86529541 64.20864868 C295.86075185 70.13417245 295.86249796 76.05967873 295.8656745 81.98520279 C295.86821401 88.19936417 295.86585613 94.4135241 295.86428833 100.62768555 C295.86235504 111.7288301 295.86545413 122.82996694 295.87054767 133.93111026 C295.87501485 143.97784045 295.87423865 154.02455908 295.86962891 164.07128906 C295.86428545 175.76386753 295.8622912 187.45643878 295.86524117 199.14901829 C295.86679666 205.32911519 295.86701768 211.50920415 295.86370468 217.68930054 C295.86080675 223.5005815 295.86283692 229.31184073 295.86859894 235.12311935 C295.86991624 237.25030862 295.86954999 239.37749974 295.86733627 241.50468826 C294.62296297 260.07590868 294.62296297 260.07590868 300 277 C305.74722109 281.01624756 312.1307445 280.55428954 318.875 280.6875 C320.0403125 280.72166016 321.205625 280.75582031 322.40625 280.79101562 C325.27050179 280.87318678 328.13523461 280.93827771 331 281 C331 285.95 331 290.9 331 296 C291.4 296 251.8 296 211 296 C211 291.05 211 286.1 211 281 C212.95164062 280.96261719 214.90328125 280.92523438 216.9140625 280.88671875 C219.48439403 280.82105335 222.05470568 280.75460621 224.625 280.6875 C225.91019531 280.66494141 227.19539063 280.64238281 228.51953125 280.61914062 C230.38544922 280.5659668 230.38544922 280.5659668 232.2890625 280.51171875 C233.43068848 280.48553467 234.57231445 280.45935059 235.74853516 280.43237305 C240.32727074 279.82350229 243.78963397 278.41904983 246.8125 274.875 C250.18809104 266.70251644 249.14276357 256.83209063 249.12939453 248.14648438 C249.13075193 246.6586452 249.13253377 245.17080635 249.13470459 243.68296814 C249.13924492 239.6592151 249.13750169 235.63548785 249.1343255 231.61173439 C249.13177675 227.37002116 249.13414711 223.12831 249.13571167 218.88659668 C249.13752923 211.74812428 249.13514121 204.60966223 249.13037109 197.47119141 C249.12496267 189.28437188 249.12666772 181.09757739 249.1321975 172.9107585 C249.13678066 165.83593266 249.13735308 158.76111425 249.13475883 151.6862874 C249.13322002 147.48203149 249.1329342 143.27778721 249.13629532 139.0735321 C249.1492743 120.35757262 248.97318339 101.69709152 248 83 C239.82575581 102.63814088 231.6597811 122.27881987 223.6875 142 C223.38942444 142.73733368 223.09134888 143.47466736 222.78424072 144.23434448 C222.48177429 144.98257477 222.17930786 145.73080505 221.86767578 146.50170898 C221.24254693 148.04802803 220.61738365 149.59433316 219.9921875 151.140625 C219.67673981 151.92083511 219.36129211 152.70104523 219.0362854 153.50489807 C214.81861029 163.92953529 210.56440642 174.33929012 206.3125 184.75 C205.89273895 185.77784607 205.47297791 186.80569214 205.04049683 187.86468506 C203.32593024 192.0629497 201.61127942 196.2611799 199.89640808 200.45932007 C196.87556075 207.85488037 193.85706793 215.25139835 190.83984375 222.6484375 C183.19679572 241.38524958 175.55042849 260.12069511 167.87536621 278.84442139 C167.17256703 280.55904314 166.47000763 282.2737632 165.7677002 283.98858643 C164.81077346 286.32474966 163.85282674 288.66049171 162.89453125 290.99609375 C162.61327896 291.68310867 162.33202667 292.3701236 162.04225159 293.07795715 C160.11477909 297.77044182 160.11477909 297.77044182 159 300 C153.26275651 299.65576539 149.90374794 298.1321191 146 294 C144.52788777 291.60416464 143.31484568 289.40057675 142.1484375 286.87109375 C141.81435883 286.17495468 141.48028015 285.47881561 141.13607788 284.76158142 C137.10657318 276.28294693 133.36233737 267.67267392 129.625 259.0625 C128.84524846 257.27479152 128.06504628 255.48727953 127.28442383 253.69995117 C125.66564479 249.99275151 124.04878437 246.2847236 122.43310547 242.57617188 C120.06081889 237.13475361 117.67522342 231.69925326 115.28515625 226.265625 C114.71151337 224.96140846 114.71151337 224.96140846 114.12628174 223.63084412 C113.36063432 221.89018972 112.59496875 220.1495433 111.82928467 218.40890503 C105.83202899 204.77121551 99.87238843 191.11822205 93.96264648 177.44238281 C89.43021141 166.96548212 84.84362184 156.51269722 80.25 146.0625 C74.36016682 132.66224705 68.48138761 119.25729031 62.62976074 105.84030151 C61.88239185 104.12674332 61.1347561 102.41330148 60.38684082 100.69998169 C59.35083125 98.32638282 58.31586486 95.95233208 57.28125 93.578125 C56.97689026 92.88107956 56.67253052 92.18403412 56.35894775 91.46586609 C54.84934846 87.99782486 53.39608599 84.51504098 52 81 C51.92991796 105.52162325 51.87701573 130.0432315 51.84456348 154.56493473 C51.82909482 165.95079458 51.80800525 177.3365922 51.77368164 188.72241211 C51.74377935 198.64632583 51.72442499 208.57019449 51.71773452 218.49415201 C51.71382369 223.74877815 51.70463256 229.00327536 51.68280983 234.25786018 C51.66243166 239.20474591 51.65616893 244.1514497 51.66067696 249.09837341 C51.65985236 250.91279527 51.65389466 252.72722328 51.64238358 254.54160881 C51.62741854 257.02231072 51.63106084 259.50232918 51.63923645 261.98304749 C51.62612866 263.05554649 51.62612866 263.05554649 51.61275607 264.14971215 C51.65769173 269.20738316 52.65919696 272.60240081 55 277 C60.95249544 280.87511448 67.50898054 280.54358417 74.4375 280.6875 C75.55060547 280.72166016 76.66371094 280.75582031 77.81054688 280.79101562 C80.54002177 280.87301702 83.26999308 280.93819656 86 281 C86 285.95 86 290.9 86 296 C57.62 296 29.24 296 0 296 C0 291.05 0 286.1 0 281 C1.44632813 280.96261719 2.89265625 280.92523438 4.3828125 280.88671875 C6.29690008 280.82103927 8.21096144 280.75459262 10 280.6875 C11.07632813 280.66494141 12.02765625 280.64238281 13.0078125 280.61914062 C20.46295396 280.34985202 20.46295396 280.34985202 27 277 C30.13914429 271.25242068 30.42778357 266.40999762 30.38095093 259.94213867 C30.3856309 258.94470988 30.39031087 257.94728109 30.39513266 256.91962719 C30.40707519 253.5856048 30.39762809 250.25199401 30.38818359 246.91796875 C30.39224961 244.52438111 30.39759166 242.13079534 30.40411377 239.73721313 C30.41636982 233.91576444 30.41458066 228.09444599 30.40587585 222.27299333 C30.39909329 217.54065897 30.39818505 212.80835712 30.4014473 208.07601929 C30.401907 207.40180063 30.40236669 206.72758198 30.40284032 206.03293246 C30.40379953 204.66315531 30.40477217 203.29337816 30.4057581 201.92360103 C30.41430723 189.08728094 30.40448535 176.25102519 30.388357 163.41471565 C30.37495423 152.40697874 30.37728246 141.39933676 30.39111328 130.39160156 C30.40717753 117.60037454 30.41348331 104.80920387 30.40427649 92.01796818 C30.40332087 90.6533057 30.40237776 89.28864321 30.4014473 87.92398071 C30.40098447 87.25258771 30.40052164 86.5811947 30.40004479 85.88945645 C30.39745743 81.16427676 30.40182041 76.43913289 30.40888596 71.71395874 C30.41755159 65.35112372 30.41154079 58.98846797 30.39420319 52.62565231 C30.39023623 50.2903816 30.39137593 47.9550958 30.39799118 45.61983109 C30.40618822 42.43230412 30.39590675 39.24535169 30.38095093 36.05786133 C30.38764309 35.13363467 30.39433526 34.20940802 30.40123022 33.25717449 C30.35117938 27.75790081 29.68780059 23.84085318 27 19 C21.57318407 15.38212271 15.53135503 15.72607208 9.1875 15.4375 C8.30384766 15.39431641 7.42019531 15.35113281 6.50976562 15.30664062 C4.34000377 15.20108464 2.1700209 15.10008929 0 15 C0 10.05 0 5.1 0 0 Z " fill="#585858" transform="translate(1002,196)"/>
<path d="M0 0 C0.94617188 0.50789063 1.89234375 1.01578125 2.8671875 1.5390625 C10.02801275 5.3011102 17.21566036 8.6888305 24.875 11.3125 C25.51937012 11.54211426 26.16374023 11.77172852 26.82763672 12.00830078 C43.15802823 17.35272146 60.12760036 17.51052333 77.125 17.6875 C79.3554876 17.72076422 81.58595717 17.75526183 83.81640625 17.79101562 C89.21081286 17.8748563 94.60523995 17.94362615 100 18 C104.82539041 31.82795774 109.54154134 45.53059755 112 60 C112.17354004 61.0209375 112.17354004 61.0209375 112.35058594 62.0625 C120.30774251 111.93049612 107.60648612 164.12671509 78.40332031 205.07861328 C75.13171391 209.55800479 71.65730896 213.82785962 68 218 C66.92685547 219.2375 66.92685547 219.2375 65.83203125 220.5 C63.59205502 223.0373182 61.30934249 225.52570448 59 228 C58.20335937 228.86238281 57.40671875 229.72476563 56.5859375 230.61328125 C29.3037976 259.09056021 -8.591324 276.83224951 -47 284 C-48.12148438 284.22558594 -49.24296875 284.45117188 -50.3984375 284.68359375 C-64.04460303 286.98976392 -78.20740562 286.17399682 -92 286 C-92.04753418 286.85255371 -92.09506836 287.70510742 -92.14404297 288.58349609 C-92.67322213 297.03762524 -93.65988767 305.28437045 -95.125 313.625 C-95.45213989 315.49128052 -95.45213989 315.49128052 -95.78588867 317.39526367 C-105.37078274 370.26376694 -124.98598716 422.18074088 -162.58349609 461.51611328 C-163.52669288 462.50417775 -164.4645589 463.49735893 -165.39697266 464.49560547 C-182.40591926 482.67595082 -203.82529255 496.06578579 -227 505 C-227.66725098 505.26119629 -228.33450195 505.52239258 -229.02197266 505.79150391 C-251.39205273 514.37580342 -275.01157096 517.22979245 -298.8125 517.25 C-300.04679749 517.25151062 -300.04679749 517.25151062 -301.30603027 517.25305176 C-314.09899251 517.24247238 -326.44071791 516.60796907 -339 514 C-339.71881348 513.86078125 -340.43762695 513.7215625 -341.17822266 513.578125 C-386.35248522 504.72966369 -427.85324853 478.08133141 -454 440 C-454.42120117 439.39607422 -454.84240234 438.79214844 -455.27636719 438.16992188 C-490.95969433 386.65910295 -507.61475505 320.68582864 -508.34844971 258.46643066 C-508.36587604 257.05269421 -508.38876756 255.6390124 -508.41766357 254.22546387 C-508.63572177 242.18504718 -506.73554909 233.39807203 -498.98046875 224.0390625 C-491.40198451 216.23636275 -482.40719014 212.88678565 -471.65069962 212.63644314 C-468.68134832 212.61547523 -465.71302861 212.63258325 -462.74371338 212.6526947 C-461.08704074 212.65281877 -459.43036755 212.65161501 -457.77369666 212.64920336 C-453.23560457 212.64638341 -448.69774162 212.66221551 -444.15969515 212.68112123 C-439.25977255 212.69821943 -434.35984769 212.69786601 -429.4598999 212.6995697 C-420.97223686 212.70481449 -412.48464928 212.72082045 -403.99701691 212.74394035 C-391.7112393 212.77721296 -379.42549249 212.79194073 -367.1396763 212.80179507 C-347.18717126 212.81811405 -327.23470307 212.84636575 -307.28222656 212.88354492 C-306.08849897 212.88576605 -304.89477138 212.88798717 -303.66487023 212.89027561 C-298.82841021 212.89929071 -293.99195022 212.90832659 -289.15549029 212.91739174 C-275.85008262 212.9422124 -262.5446714 212.96468475 -249.23925781 212.98608398 C-247.45267161 212.98896245 -247.45267161 212.98896245 -245.62999275 212.99189907 C-225.75612354 213.02363087 -205.88225084 213.04734182 -186.00836539 213.06616598 C-173.75700311 213.07822336 -161.50569768 213.0979861 -149.25436541 213.12777246 C-140.8561287 213.14779994 -132.45790015 213.1608488 -124.05964306 213.16846316 C-119.21755265 213.17312907 -114.37552693 213.18112662 -109.53346252 213.19803619 C-105.09457341 213.21349598 -100.65577071 213.21957321 -96.21685573 213.21843595 C-94.61730119 213.21966577 -93.01774461 213.22426987 -91.41821197 213.23273002 C-82.10946595 213.27986549 -73.17551275 212.75478755 -64 211 C-63.07413409 210.82316884 -62.14826817 210.64633767 -61.19434571 210.46414798 C-28.95058016 204.09596397 -0.12994148 187.44960281 18.55078125 159.82421875 C36.06011101 132.9654495 43.75893758 100.84074594 37.47436523 69.03491211 C31.95978428 44.26899227 20.38503366 21.99189598 1.58203125 4.76953125 C0 3 0 3 0 0 Z M-432 286 C-429.40321312 305.21878604 -429.40321312 305.21878604 -425.3125 324 C-425.14081299 324.67256836 -424.96912598 325.34513672 -424.79223633 326.03808594 C-420.12134244 344.27620257 -413.90490889 361.40618868 -405 378 C-404.51015625 378.96808594 -404.0203125 379.93617188 -403.515625 380.93359375 C-389.75105421 407.57345127 -367.05202323 429.1030524 -338.24072266 438.33886719 C-308.34196736 447.16059625 -272.98634903 446.76688875 -245 432 C-243.63681641 431.32324219 -243.63681641 431.32324219 -242.24609375 430.6328125 C-235.48054463 427.15123646 -229.7714602 422.93351574 -224 418 C-223.26136719 417.40703125 -222.52273438 416.8140625 -221.76171875 416.203125 C-185.55101833 386.10257829 -170.93782903 330.44046125 -166 286 C-253.78 286 -341.56 286 -432 286 Z " fill="#A96B55" transform="translate(508,350)"/>
<path d="M0 0 C7.82875508 -0.09063217 15.65730317 -0.1639054 23.48632812 -0.20724869 C26.14796423 -0.17815167 28.80911286 -0.20029814 31.47070312 -0.22631836 C35.30344752 -0.26284115 39.1358629 -0.27975892 42.96875 -0.29296875 C44.15239136 -0.30845261 45.33603271 -0.32393646 46.55554199 -0.33988953 C55.61635583 -0.34172175 63.15030364 0.9818515 69.953125 7.40234375 C74.9745154 13.77490981 77.80929807 21.60370191 81 29 C81.94234796 31.15770951 82.8850745 33.3152537 83.828125 35.47265625 C85.70447716 39.78055849 87.57128108 44.09239807 89.42871094 48.40847778 C93.79951421 58.56466481 98.23801715 68.69057564 102.6875 78.8125 C103.45558399 80.56053915 104.22365028 82.30858607 104.99169922 84.05664062 C106.93931877 88.48880656 108.88760722 92.92067816 110.83605957 97.35247803 C114.24625578 105.10937792 117.65504099 112.86689733 121.0625 120.625 C121.43490814 121.47285065 121.80731628 122.32070129 122.19100952 123.19424438 C127.99656537 136.41376126 133.77495968 149.64494472 139.53741455 162.88330078 C143.67557831 172.38963606 147.82552303 181.89064365 151.99609375 191.3828125 C152.61775925 192.79774994 152.61775925 192.79774994 153.25198364 194.24127197 C155.26287681 198.81709349 157.27517731 203.39229144 159.2890625 207.96679688 C160.01432936 209.61588258 160.7395901 211.26497098 161.46484375 212.9140625 C161.79423447 213.66116486 162.12362518 214.40826721 162.46299744 215.17800903 C162.76903397 215.87417328 163.0750705 216.57033752 163.39038086 217.28759766 C163.65443222 217.88722321 163.91848358 218.48684875 164.1905365 219.10464478 C165.16575031 221.38810361 166.08471162 223.69195708 167 226 C173.45336407 211.18228846 179.56408794 196.2496173 185.51171875 181.22265625 C186.40328094 178.97673177 187.29515468 176.73093095 188.18731689 174.48524475 C190.06032416 169.76961755 191.93188955 165.05342223 193.80221558 160.33673096 C198.63627054 148.14712347 203.4811926 135.96183559 208.328125 123.77734375 C209.03698255 121.99516701 209.03698255 121.99516701 209.76016045 120.17698669 C217.89946401 99.7180967 226.1085637 79.29006581 234.4855957 58.92724609 C235.27303617 57.01273107 236.06039338 55.09818181 236.84765625 53.18359375 C237.39169853 51.8611969 237.39169853 51.8611969 237.94673157 50.51208496 C240.26370886 44.85865903 242.49780566 39.17796847 244.68359375 33.47265625 C245.24020048 32.03169375 245.79691786 30.59077398 246.35375977 29.14990234 C247.31067796 26.67146152 248.24124891 24.18863932 249.15600586 21.69384766 C252.50826238 12.97298036 256.66021541 5.80945804 265.38769531 1.77514648 C271.89679162 -0.66282994 278.22852267 -0.50316729 285.1015625 -0.390625 C287.07798233 -0.38213531 287.07798233 -0.38213531 289.09432983 -0.37347412 C292.56332892 -0.35834783 296.03163656 -0.31918309 299.50036621 -0.2746582 C303.05353446 -0.23342063 306.60681665 -0.21540294 310.16015625 -0.1953125 C317.10708004 -0.15267216 324.05343543 -0.08243299 331 0 C331 4.95 331 9.9 331 15 C328.63134766 15.07347656 328.63134766 15.07347656 326.21484375 15.1484375 C324.12237947 15.22350348 322.02993237 15.29904964 319.9375 15.375 C318.89916016 15.4059375 317.86082031 15.436875 316.79101562 15.46875 C307.17557639 15.50509289 307.17557639 15.50509289 299.125 19.9375 C293.42985953 30.37859086 295.85859795 46.09855706 295.87060547 57.63671875 C295.86924887 59.82736236 295.86746749 62.01800573 295.86529541 64.20864868 C295.86075185 70.13417245 295.86249796 76.05967873 295.8656745 81.98520279 C295.86821401 88.19936417 295.86585613 94.4135241 295.86428833 100.62768555 C295.86235504 111.7288301 295.86545413 122.82996694 295.87054767 133.93111026 C295.87501485 143.97784045 295.87423865 154.02455908 295.86962891 164.07128906 C295.86428545 175.76386753 295.8622912 187.45643878 295.86524117 199.14901829 C295.86679666 205.32911519 295.86701768 211.50920415 295.86370468 217.68930054 C295.86080675 223.5005815 295.86283692 229.31184073 295.86859894 235.12311935 C295.86991624 237.25030862 295.86954999 239.37749974 295.86733627 241.50468826 C294.62296297 260.07590868 294.62296297 260.07590868 300 277 C305.74722109 281.01624756 312.1307445 280.55428954 318.875 280.6875 C320.0403125 280.72166016 321.205625 280.75582031 322.40625 280.79101562 C325.27050179 280.87318678 328.13523461 280.93827771 331 281 C331 285.95 331 290.9 331 296 C291.4 296 251.8 296 211 296 C211 291.05 211 286.1 211 281 C212.95164062 280.96261719 214.90328125 280.92523438 216.9140625 280.88671875 C219.48439403 280.82105335 222.05470568 280.75460621 224.625 280.6875 C225.91019531 280.66494141 227.19539063 280.64238281 228.51953125 280.61914062 C230.38544922 280.5659668 230.38544922 280.5659668 232.2890625 280.51171875 C233.43068848 280.48553467 234.57231445 280.45935059 235.74853516 280.43237305 C240.32727074 279.82350229 243.78963397 278.41904983 246.8125 274.875 C250.18809104 266.70251644 249.14276357 256.83209063 249.12939453 248.14648438 C249.13075193 246.6586452 249.13253377 245.17080635 249.13470459 243.68296814 C249.13924492 239.6592151 249.13750169 235.63548785 249.1343255 231.61173439 C249.13177675 227.37002116 249.13414711 223.12831 249.13571167 218.88659668 C249.13752923 211.74812428 249.13514121 204.60966223 249.13037109 197.47119141 C249.12496267 189.28437188 249.12666772 181.09757739 249.1321975 172.9107585 C249.13678066 165.83593266 249.13735308 158.76111425 249.13475883 151.6862874 C249.13322002 147.48203149 249.1329342 143.27778721 249.13629532 139.0735321 C249.1492743 120.35757262 248.97318339 101.69709152 248 83 C239.82575581 102.63814088 231.6597811 122.27881987 223.6875 142 C223.38942444 142.73733368 223.09134888 143.47466736 222.78424072 144.23434448 C222.48177429 144.98257477 222.17930786 145.73080505 221.86767578 146.50170898 C221.24254693 148.04802803 220.61738365 149.59433316 219.9921875 151.140625 C219.67673981 151.92083511 219.36129211 152.70104523 219.0362854 153.50489807 C214.81861029 163.92953529 210.56440642 174.33929012 206.3125 184.75 C205.89273895 185.77784607 205.47297791 186.80569214 205.04049683 187.86468506 C203.32593024 192.0629497 201.61127942 196.2611799 199.89640808 200.45932007 C196.87556075 207.85488037 193.85706793 215.25139835 190.83984375 222.6484375 C183.19679572 241.38524958 175.55042849 260.12069511 167.87536621 278.84442139 C167.17256703 280.55904314 166.47000763 282.2737632 165.7677002 283.98858643 C164.81077346 286.32474966 163.85282674 288.66049171 162.89453125 290.99609375 C162.61327896 291.68310867 162.33202667 292.3701236 162.04225159 293.07795715 C160.11477909 297.77044182 160.11477909 297.77044182 159 300 C153.26275651 299.65576539 149.90374794 298.1321191 146 294 C144.52788777 291.60416464 143.31484568 289.40057675 142.1484375 286.87109375 C141.81435883 286.17495468 141.48028015 285.47881561 141.13607788 284.76158142 C137.10657318 276.28294693 133.36233737 267.67267392 129.625 259.0625 C128.84524846 257.27479152 128.06504628 255.48727953 127.28442383 253.69995117 C125.66564479 249.99275151 124.04878437 246.2847236 122.43310547 242.57617188 C120.06081889 237.13475361 117.67522342 231.69925326 115.28515625 226.265625 C114.71151337 224.96140846 114.71151337 224.96140846 114.12628174 223.63084412 C113.36063432 221.89018972 112.59496875 220.1495433 111.82928467 218.40890503 C105.83202899 204.77121551 99.87238843 191.11822205 93.96264648 177.44238281 C89.43021141 166.96548212 84.84362184 156.51269722 80.25 146.0625 C74.36016682 132.66224705 68.48138761 119.25729031 62.62976074 105.84030151 C61.88239185 104.12674332 61.1347561 102.41330148 60.38684082 100.69998169 C59.35083125 98.32638282 58.31586486 95.95233208 57.28125 93.578125 C56.97689026 92.88107956 56.67253052 92.18403412 56.35894775 91.46586609 C54.84934846 87.99782486 53.39608599 84.51504098 52 81 C51.92991796 105.52162325 51.87701573 130.0432315 51.84456348 154.56493473 C51.82909482 165.95079458 51.80800525 177.3365922 51.77368164 188.72241211 C51.74377935 198.64632583 51.72442499 208.57019449 51.71773452 218.49415201 C51.71382369 223.74877815 51.70463256 229.00327536 51.68280983 234.25786018 C51.66243166 239.20474591 51.65616893 244.1514497 51.66067696 249.09837341 C51.65985236 250.91279527 51.65389466 252.72722328 51.64238358 254.54160881 C51.62741854 257.02231072 51.63106084 259.50232918 51.63923645 261.98304749 C51.62612866 263.05554649 51.62612866 263.05554649 51.61275607 264.14971215 C51.65769173 269.20738316 52.65919696 272.60240081 55 277 C60.95249544 280.87511448 67.50898054 280.54358417 74.4375 280.6875 C75.55060547 280.72166016 76.66371094 280.75582031 77.81054688 280.79101562 C80.54002177 280.87301702 83.26999308 280.93819656 86 281 C86 285.95 86 290.9 86 296 C57.62 296 29.24 296 0 296 C0 291.05 0 286.1 0 281 C1.423125 280.93941406 2.84625 280.87882812 4.3125 280.81640625 C6.20834079 280.7319381 8.10417372 280.6472933 10 280.5625 C10.93457031 280.52318359 11.86914062 280.48386719 12.83203125 280.44335938 C18.27188123 280.19609347 23.60694577 279.75680832 29 279 C29.82713934 276.10669576 30.1258903 273.53914726 30.12863445 270.53375912 C30.1318589 269.63937915 30.13508335 268.74499918 30.1384055 267.82351679 C30.1368569 266.8450227 30.1353083 265.86652861 30.13371277 264.85838318 C30.13597833 263.81577632 30.13824388 262.77316947 30.14057809 261.69896847 C30.14692417 258.19440206 30.14608834 254.68987426 30.14526367 251.18530273 C30.14825472 248.67729645 30.15165712 246.16929062 30.15544128 243.6612854 C30.16336993 237.55003978 30.16649609 231.43880838 30.16705366 225.32755809 C30.16752869 220.36200228 30.16958278 215.39644966 30.17275429 210.43089485 C30.18155966 196.35865308 30.18617367 182.28641893 30.18542381 168.21417438 C30.18536388 167.07622325 30.18536388 167.07622325 30.18530273 165.9152832 C30.18526185 165.15572537 30.18522097 164.39616754 30.18517885 163.61359281 C30.18477209 151.29389453 30.19434966 138.97422676 30.2084411 126.65453731 C30.22278951 114.01068526 30.22971218 101.36684811 30.22884732 88.72298771 C30.22851489 81.62194184 30.23128226 74.520928 30.24202538 67.41988945 C30.2520574 60.74607487 30.25181084 54.07233934 30.24450874 47.39851761 C30.24345843 44.94384856 30.24585202 42.48917537 30.2518692 40.03451347 C30.25952902 36.69447223 30.25498443 33.3546689 30.24723816 30.01463318 C30.25238172 29.03390837 30.25752529 28.05318355 30.26282471 27.04273981 C30.25822592 26.15096759 30.25362712 25.25919536 30.24888897 24.34039974 C30.24910634 23.56907772 30.24932371 22.7977557 30.24954766 22.00306028 C30.11232369 19.68360651 30.11232369 19.68360651 28 17 C24.87124815 15.82133109 21.67681348 15.8071154 18.359375 15.68359375 C17.28945313 15.64169922 16.21953125 15.59980469 15.1171875 15.55664062 C14.00601563 15.51732422 12.89484375 15.47800781 11.75 15.4375 C10.62335937 15.39431641 9.49671875 15.35113281 8.3359375 15.30664062 C5.55743201 15.20068067 2.77873186 15.0998474 0 15 C0 10.05 0 5.1 0 0 Z " fill="#585858" transform="translate(1002,566)"/>
<path d="M0 0 C0 22.11 0 44.22 0 67 C24.42 67 48.84 67 74 67 C74 73.27 74 79.54 74 86 C49.58 86 25.16 86 0 86 C0.11979337 109.39459354 0.11979337 109.39459354 0.2578125 132.7890625 C0.31816594 142.33331105 0.37653777 151.87754172 0.421875 161.421875 C0.45490748 168.37388228 0.49480012 175.32581131 0.54279006 182.27773201 C0.56794365 185.95569815 0.58975721 189.63361313 0.60334396 193.31164169 C0.61867318 197.42646194 0.64932401 201.54103598 0.68115234 205.65576172 C0.68331253 206.86345718 0.68547272 208.07115265 0.68769836 209.31544495 C0.77989552 218.67127327 1.51399652 227.02341257 6.09765625 235.30859375 C7 237 7 237 8 240 C10.29534258 241.13545562 10.29534258 241.13545562 13 242 C13.74378906 242.3403125 14.48757813 242.680625 15.25390625 243.03125 C22.27382761 245.50769452 30.68511552 245.07585612 37.4375 242 C46.7789875 236.52395561 50.77594089 228.59985976 53.73046875 218.50390625 C55.21054596 213.52397796 56.36553319 210.85197958 61 208 C63.64458379 206.67770811 65.67761301 206.90322806 68.625 206.9375 C69.62789062 206.94652344 70.63078125 206.95554687 71.6640625 206.96484375 C72.82035156 206.98224609 72.82035156 206.98224609 74 207 C74.87274741 221.31952227 70.77750687 235.21916096 61.96484375 246.63671875 C51.6235639 257.69119032 37.96955807 263.69423221 22.97265625 264.34375 C20.77369456 264.38965359 18.57437734 264.42079751 16.375 264.4375 C15.33835205 264.44773193 14.3017041 264.45796387 13.23364258 264.46850586 C-2.40132641 264.29158091 -17.64162474 259.02974234 -29 248 C-41.14161358 234.26342897 -45.33702624 220.09042973 -45.22705078 202.13647461 C-45.22734283 200.87694977 -45.22763489 199.61742493 -45.22793579 198.31973267 C-45.22850575 194.89263065 -45.21680986 191.46567083 -45.20278788 188.03860164 C-45.19022045 184.4471744 -45.1891053 180.85574332 -45.18673706 177.26429749 C-45.18053986 170.47532511 -45.16415307 163.68641773 -45.14403808 156.89747387 C-45.12162405 149.16344325 -45.11067186 141.4294094 -45.10064721 133.69535434 C-45.07978512 117.79685893 -45.04313109 101.89845297 -45 86 C-56.88 86 -68.76 86 -81 86 C-81 79.73 -81 73.46 -81 67 C-78.97617188 66.96261719 -76.95234375 66.92523438 -74.8671875 66.88671875 C-72.89125062 66.83801608 -70.91531487 66.78920997 -68.93945312 66.73754883 C-67.5740075 66.70444614 -66.20842987 66.67636914 -64.84277344 66.65356445 C-62.87146776 66.61975009 -60.90053809 66.56591714 -58.9296875 66.51171875 C-57.74616699 66.48553467 -56.56264648 66.45935059 -55.34326172 66.43237305 C-50.96920066 65.86669011 -47.53774687 64.45231649 -44.3125 61.40625 C-38.14516345 52.44892786 -35.84433983 41.49815791 -32.91015625 31.16015625 C-29.94660488 20.96030273 -26.12660429 12.96842451 -17 7 C-3.39622642 0 -3.39622642 0 0 0 Z M-70.47265625 17.9765625 C-81.94469891 33.17481851 -81.64724117 54.70093158 -79.49609375 72.83203125 C-77.7006658 85.26905341 -73.98031576 98.89038077 -63.5625 106.8125 C-56.45021645 111.83394357 -48.3606001 111.71558766 -40 111 C-32.36607048 109.38009374 -25.97604508 106.08667221 -21 100 C-9.60374974 81.54771951 -10.1975166 58.96492595 -14.8125 38.375 C-17.83688191 27.68885059 -22.54967105 18.28857379 -32 12 C-44.26233711 5.35888899 -61.13495577 7.56228008 -70.47265625 17.9765625 Z M-112.16015625 204.66015625 C-117.73573982 209.8569316 -121.4676497 216.46150936 -122.203125 224.11328125 C-122.37875443 232.35322849 -119.69434852 238.05900098 -114.1328125 244.0859375 C-90.6383284 265.17073093 -48.22303547 263.21770948 -18.97167969 261.859375 C-1.96935411 260.83562909 20.5899268 258.85682028 32.75 245.375 C37.52444408 239.1803099 37.76265341 232.54625476 37 225 C35.73639551 220.08999398 32.83208593 217.60587526 28.6875 214.875 C9.83243349 204.55548762 -12.93055662 202.62630582 -33.9375 200.5 C-46.93469528 199.18189091 -59.68921911 197.48231782 -72.49829102 194.88476562 C-86.79255611 192.02249609 -100.42883057 195.64421879 -112.16015625 204.66015625 Z " fill="#585858" transform="translate(2312,670)"/>
<path d="M0 0 C8.0760232 -0.09063217 16.15164617 -0.1639054 24.2280426 -0.20724869 C27.97888189 -0.22807536 31.72935302 -0.25630161 35.47998047 -0.30175781 C39.10452862 -0.3454525 42.72872427 -0.36918636 46.35351562 -0.37950897 C47.73133894 -0.38686883 49.10914455 -0.40124091 50.48681641 -0.42292023 C58.40222617 -0.5426157 64.30087173 -0.44774849 71 4 C74.45559718 8.45883506 75.12241583 12.62999741 75.13803101 18.15679932 C75.14348434 19.19935883 75.14893768 20.24191833 75.15455627 21.31607056 C75.1555986 22.45474579 75.15664093 23.59342102 75.15771484 24.76660156 C75.16279556 25.97043488 75.16787628 27.17426819 75.17311096 28.4145813 C75.18381875 31.03258986 75.19281927 33.65054542 75.19923019 36.26856232 C75.20995193 40.4235298 75.23021304 44.57841701 75.25234985 48.7333374 C75.31411702 60.54874946 75.36808312 72.36415836 75.40136719 84.1796875 C75.41983263 90.70623991 75.44892343 97.23265896 75.4893719 103.75911307 C75.51025999 107.20474007 75.52587273 110.65020027 75.52817917 114.09589386 C74.97621839 144.42189439 74.97621839 144.42189439 87.80078125 171.1328125 C91.68794129 174.70107027 95.69575798 176.95684759 101.09375 177.02734375 C110.29446374 176.41291252 116.37953794 172.38962389 122.640625 165.8046875 C145.00469942 139.21957917 151.13752358 107.59947875 151.16796875 73.703125 C151.17129715 72.38890564 151.17462555 71.07468628 151.17805481 69.72064209 C151.18398138 66.96430639 151.1859011 64.20800176 151.18530273 61.45166016 C151.18520061 57.94297803 151.19893353 54.43449595 151.21607494 50.92586136 C151.229931 47.53911323 151.22928445 44.15240104 151.23046875 40.765625 C151.24124702 38.89502411 151.24124702 38.89502411 151.25224304 36.9866333 C151.23493856 30.35745966 150.94309017 24.3638179 149 18 C144.29726743 15.10715189 138.05010325 15.5607382 132.625 15.375 C131.23474609 15.31699219 131.23474609 15.31699219 129.81640625 15.2578125 C127.54457704 15.16412882 125.27231672 15.08100191 123 15 C123 10.05 123 5.1 123 0 C131.11056037 -0.06788391 139.2208984 -0.12287807 147.33166695 -0.15543652 C151.09817214 -0.17106606 154.86447221 -0.19225424 158.63085938 -0.22631836 C162.26835002 -0.25900935 165.90564385 -0.2768734 169.54327011 -0.28463173 C170.92830374 -0.29015785 172.31332709 -0.30094905 173.69827652 -0.31719017 C175.64395821 -0.33909128 177.58983961 -0.34022648 179.53564453 -0.34057617 C180.64150909 -0.34723801 181.74737366 -0.35389984 182.88674927 -0.36076355 C187.7953108 0.20804065 191.01806271 1.91190732 194.3125 5.5625 C196.92136684 9.33086322 197.12998085 11.31789181 197.15148926 15.89230347 C197.15983292 17.14824814 197.16817657 18.40419281 197.17677307 19.69819641 C197.18108303 21.09811376 197.18530679 22.49803138 197.18945312 23.89794922 C197.19739356 25.36644225 197.20578135 26.83493291 197.21458435 28.30342102 C197.23266824 31.4720275 197.24767509 34.64062868 197.26036072 37.80926132 C197.28058235 42.82828832 197.30824063 47.84725734 197.33703613 52.86624146 C197.39718572 63.53580029 197.44889511 74.20539463 197.5 84.875 C197.5551378 96.35945829 197.61190527 107.84389876 197.67754889 119.3283025 C197.70573492 124.30756518 197.72939108 129.28682187 197.74947357 134.26612353 C197.76297412 137.38165979 197.78038063 140.49716584 197.79878426 143.61267662 C197.80646385 145.04603106 197.81256601 146.47939507 197.81687737 147.9127636 C197.83755565 154.53598326 197.92903336 161.14942797 198.32434082 167.76199341 C198.38063911 168.70385561 198.43693741 169.64571781 198.49494171 170.61612129 C199.07750011 173.36580107 199.79078805 174.31130638 202 176 C206.71613026 177.48322741 211.90266733 177.33915936 216.8125 177.5625 C217.69615234 177.60568359 218.57980469 177.64886719 219.49023438 177.69335938 C221.65999623 177.79891536 223.8299791 177.89991071 226 178 C226 182.95 226 187.9 226 193 C217.88943963 193.06788391 209.7791016 193.12287807 201.66833305 193.15543652 C197.90182786 193.17106606 194.13552779 193.19225424 190.36914062 193.22631836 C186.73164998 193.25900935 183.09435615 193.2768734 179.45672989 193.28463173 C178.07169626 193.29015785 176.68667291 193.30094905 175.30172348 193.31719017 C173.35604179 193.33909128 171.41016039 193.34022648 169.46435547 193.34057617 C168.35849091 193.34723801 167.25262634 193.35389984 166.11325073 193.36076355 C161.2046892 192.79195935 157.98193729 191.08809268 154.6875 187.4375 C152.21212574 183.86195941 151.84282178 181.87659118 151.68359375 177.5546875 C151.64169922 176.47832031 151.59980469 175.40195312 151.55664062 174.29296875 C151.51732422 173.16503906 151.47800781 172.03710938 151.4375 170.875 C151.37272461 169.17150391 151.37272461 169.17150391 151.30664062 167.43359375 C151.2003396 164.62252232 151.09830595 161.81136055 151 159 C150.21689453 160.30710937 150.21689453 160.30710937 149.41796875 161.640625 C139.48860754 177.85888712 128.00281992 190.70086281 109 196 C91.53088565 199.78665773 69.46196314 197.78222733 54.19140625 188.24609375 C40.79094325 178.95486364 33.2636065 167.03628228 30 151 C28.89483278 144.78571125 28.84171462 138.69480915 28.82641602 132.39257812 C28.819729 131.24212509 28.81304199 130.09167206 28.80615234 128.90635681 C28.79213884 126.41609235 28.78023313 123.92581532 28.77020454 121.43553162 C28.75374583 117.49282233 28.73050739 113.55020648 28.70530701 109.60754395 C28.6343362 98.40035953 28.57432207 87.19313186 28.52319336 75.98583984 C28.49180833 69.12423466 28.45011417 62.26274446 28.40299797 55.40122986 C28.38699453 52.78899609 28.37466533 50.1767371 28.36609077 47.56446838 C28.35392524 43.91200624 28.32977113 40.25980185 28.30297852 36.60742188 C28.30238937 35.53084824 28.30180023 34.4542746 28.30119324 33.34507751 C28.24810058 27.87760678 28.02952326 23.11368212 26 18 C21.10859648 15.23797719 15.13338675 15.56358956 9.625 15.375 C8.69816406 15.33632813 7.77132813 15.29765625 6.81640625 15.2578125 C4.54457704 15.16412882 2.27231672 15.08100191 0 15 C0 10.05 0 5.1 0 0 Z " fill="#585858" transform="translate(1002,566)"/>
<path d="M0 0 C13.889607 13.05288369 19.36584513 30.07821411 20.53242302 48.77365112 C20.6043988 51.78225713 20.62244875 54.78547501 20.61499023 57.79492188 C20.62021698 58.92020294 20.62544373 60.04548401 20.63082886 61.2048645 C20.64098601 63.6213595 20.6468346 66.03787586 20.64871025 68.45439148 C20.65240236 72.2794703 20.66920193 76.10429643 20.68946838 79.92932129 C20.73764238 89.4165829 20.76959356 98.90387518 20.79077148 108.39123535 C20.80874469 116.43718099 20.83807709 124.48286002 20.88481331 132.52870178 C20.89646521 135.06443829 20.90239367 137.60020779 20.90249443 140.13597107 C20.90268603 143.67092341 20.92091516 147.20536172 20.94311523 150.74023438 C20.93853806 151.78652008 20.93396088 152.83280579 20.929245 153.91079712 C20.94570563 160.84684874 20.94570563 160.84684874 24.34375 166.75 C27.52795845 168.87280563 28.54912255 169.03019537 32.23046875 169.1640625 C33.16826172 169.20273437 34.10605469 169.24140625 35.07226562 169.28125 C36.04873047 169.3121875 37.02519531 169.343125 38.03125 169.375 C39.51334961 169.43300781 39.51334961 169.43300781 41.02539062 169.4921875 C43.4645361 169.58645399 45.90411747 169.6693159 48.34375 169.75 C48.67375 174.7 49.00375 179.65 49.34375 184.75 C41.12007274 184.8405653 32.89678673 184.91386722 24.6727438 184.95724869 C20.85349862 184.97807536 17.03461392 185.00630161 13.21557617 185.05175781 C9.52619473 185.09539325 5.83715883 185.11917408 2.14753914 185.12950897 C0.74377062 185.13686883 -0.65998014 185.15124091 -2.06360054 185.17292023 C-15.73160549 185.37552628 -15.73160549 185.37552628 -21.65625 180.75 C-25.52552941 176.34702687 -25.82004515 170.36732905 -26.65625 164.75 C-27.40648437 165.60722656 -28.15671875 166.46445312 -28.9296875 167.34765625 C-39.19978415 178.89919353 -49.51498636 187.96835949 -65.63208008 188.92700195 C-87.08763638 189.32618249 -110.44136626 189.4028739 -127.14453125 173.45703125 C-138.18500596 160.99013862 -142.62835533 147.31337678 -141.83105469 130.78320312 C-140.41771274 114.34422021 -131.63005442 100.61291213 -119.65625 89.75 C-94.13404711 69.13961729 -60.80636272 62.53043155 -28.65625 64.75 C-27.17125 65.245 -27.17125 65.245 -25.65625 65.75 C-25.73843228 61.35347519 -25.85114649 56.95820864 -25.96875 52.5625 C-25.99130859 51.33595703 -26.01386719 50.10941406 -26.03710938 48.84570312 C-26.46637497 34.05555221 -28.86738015 19.81718026 -40.03125 9.25 C-46.51642416 3.51778614 -53.60516679 2.20636735 -62.03125 2.3125 C-63.28470215 2.32277222 -63.28470215 2.32277222 -64.56347656 2.33325195 C-70.93508449 2.49893362 -76.10558765 3.46956941 -81.65625 6.75 C-82.28402344 7.07742188 -82.91179687 7.40484375 -83.55859375 7.7421875 C-93.46693446 13.68285567 -97.53131779 26.58858162 -101.65625 36.75 C-106.60625 36.75 -111.55625 36.75 -116.65625 36.75 C-116.88693672 31.88763659 -117.08536137 27.04440411 -117.20556641 22.1809082 C-117.25566163 20.53051305 -117.3237671 18.88055755 -117.41064453 17.23168945 C-118.11187701 3.57415564 -118.11187701 3.57415564 -114.61865234 -0.8034668 C-112.04040702 -2.63412315 -109.54267604 -3.97004759 -106.65625 -5.25 C-105.49176609 -5.9318818 -104.3319039 -6.62180652 -103.1796875 -7.32421875 C-72.60957405 -22.98855728 -27.03262231 -22.89822125 0 0 Z M-82.6328125 99.0390625 C-92.82169838 112.69650527 -94.75300173 129.64487775 -93.18359375 146.23828125 C-91.82353792 155.29524563 -89.85865312 161.80624965 -82.4609375 167.54296875 C-77.13923999 171.10228591 -70.83857652 170.19723213 -64.65625 169.75 C-53.85117342 167.51654842 -45.59465205 158.92769525 -39.24609375 150.30859375 C-26.98815286 130.58144072 -25.21890899 107.32165543 -25.65625 84.75 C-45.246541 80.03201842 -68.8254314 83.04869624 -82.6328125 99.0390625 Z " fill="#585858" transform="translate(1946.65625,307.25)"/>
<path d="M0 0 C0.61230469 0.41507813 1.22460938 0.83015625 1.85546875 1.2578125 C14.55743242 10.96594949 21.06845435 27.65184541 23.28644753 42.97952652 C24.03584676 49.16268202 24.15144789 55.2753978 24.15771484 61.49902344 C24.16279556 62.61396683 24.16787628 63.72891022 24.17311096 64.87763977 C24.18376132 67.2838438 24.19240212 69.69005741 24.19923019 72.09627533 C24.21107689 75.90418077 24.23054061 79.71197572 24.25234985 83.51983643 C24.31380036 94.34115217 24.36836164 105.16244492 24.40136719 115.98388672 C24.42167764 122.61440204 24.45754827 129.24472641 24.50212479 135.8751297 C24.51629623 138.39969694 24.52500979 140.92430091 24.52817917 143.44890594 C24.53307453 146.97234508 24.55619391 150.49522813 24.58349609 154.01855469 C24.58048996 155.06177383 24.57748383 156.10499298 24.5743866 157.17982483 C24.61928907 164.09126863 24.61928907 164.09126863 28 170 C30.87704218 171.95891632 33.32820511 172.28185404 36.765625 172.4140625 C37.65507812 172.45273437 38.54453125 172.49140625 39.4609375 172.53125 C40.38132812 172.5621875 41.30171875 172.593125 42.25 172.625 C43.65378906 172.68300781 43.65378906 172.68300781 45.0859375 172.7421875 C47.39030796 172.83624344 49.6951266 172.91920186 52 173 C52 177.95 52 182.9 52 188 C44.05436043 188.09063997 36.10912786 188.16390979 28.16310883 188.20724869 C24.47280045 188.2280571 20.78286642 188.25624919 17.09277344 188.30175781 C13.52657939 188.34545943 9.96074369 188.36918776 6.39430237 188.37950897 C4.38249888 188.39041494 2.37083804 188.42160191 0.35925293 188.45318604 C-6.90822395 188.45495577 -11.87069511 188.03591867 -18 184 C-20.88331898 180.47334412 -21.55057054 177.14600621 -22.1875 172.6875 C-22.34605469 171.61886719 -22.50460938 170.55023437 -22.66796875 169.44921875 C-22.77753906 168.64097656 -22.88710937 167.83273437 -23 167 C-23.56847656 167.72445312 -24.13695313 168.44890625 -24.72265625 169.1953125 C-34.63703081 181.60897013 -44.78524747 189.79301197 -61 192 C-80.88044382 193.5233796 -102.34444792 192.48481848 -118.7421875 179.89453125 C-128.92742094 171.11467869 -136.33407592 160.67088213 -138 147 C-138.98026018 129.31761444 -135.62914484 114.39153249 -123.625 100.6875 C-122.10248696 99.10633068 -120.56140025 97.54278048 -119 96 C-118.33613281 95.31421875 -117.67226562 94.6284375 -116.98828125 93.921875 C-96.25983836 73.86463883 -64.71260707 67.76107302 -37 67.9375 C-35.63932456 67.94252513 -34.27864733 67.94708624 -32.91796875 67.95117188 C-29.61193275 67.96289541 -26.30598999 67.97930573 -23 68 C-22.91139349 63.77097009 -22.85907755 59.54218507 -22.8125 55.3125 C-22.78736328 54.13365234 -22.76222656 52.95480469 -22.73632812 51.74023438 C-22.61849448 37.40380699 -25.37754858 23.91948867 -35.3125 13.0625 C-42.10262244 6.78427149 -50.5169819 4.70206096 -59.546875 4.8515625 C-69.3642969 5.44561032 -78.83655177 8.25399759 -85.75 15.5625 C-91.4856265 22.7185057 -95.02179784 31.39630488 -98 40 C-102.95 40 -107.9 40 -113 40 C-113.25407399 35.15462936 -113.47215114 30.33259552 -113.60424805 25.48583984 C-113.65929641 23.8421378 -113.73417216 22.19896798 -113.82983398 20.55712891 C-114.60142093 6.9656455 -114.60142093 6.9656455 -110.72216797 2.20410156 C-107.90449099 0.12015973 -105.15425309 -1.48267426 -102 -3 C-100.88109375 -3.64453125 -99.7621875 -4.2890625 -98.609375 -4.953125 C-68.1702708 -18.75883892 -28.23547218 -19.35860082 0 0 Z M-77.875 100.6875 C-87.90761168 112.76246477 -91.32033906 129.50338887 -90 145 C-89.03737312 154.18655032 -87.6087222 163.11549416 -80.4375 169.5 C-75.13769324 173.74928827 -69.53634791 173.59573903 -63 173 C-50.31826066 169.99688175 -40.92691296 161.91168181 -34.1171875 150.9765625 C-23.45002689 131.16612136 -21.59976167 109.10205009 -22 87 C-41.57306859 83.86932713 -63.40054767 85.69016105 -77.875 100.6875 Z " fill="#585858" transform="translate(2508,674)"/>
<path d="M0 0 C14.09200779 12.53067738 19.56724116 30.67150068 20.9375 48.875 C21.07517472 52.71571281 21.09129614 56.55281444 21.09521484 60.39575195 C21.10029556 61.5010878 21.10537628 62.60642365 21.11061096 63.74525452 C21.1212503 66.12743165 21.12989528 68.50961838 21.13673019 70.89180946 C21.14859073 74.66198969 21.16805715 78.43205902 21.18984985 82.20219421 C21.25125869 92.91511948 21.30587507 103.62801416 21.33886719 114.34106445 C21.35917757 120.90789503 21.39504555 127.47453279 21.43962479 134.04125023 C21.45379411 136.54069745 21.46250931 139.04018175 21.46567917 141.53966713 C21.47057452 145.02707684 21.49369317 148.51392473 21.52099609 152.0012207 C21.51798996 153.03351807 21.51498383 154.06581543 21.5118866 155.12939453 C21.56778753 161.99961216 21.56778753 161.99961216 24.9375 167.875 C27.81454218 169.83391632 28.54912255 170.15685404 32.23046875 170.2890625 C33.16826172 170.32773437 34.10605469 170.36640625 35.07226562 170.40625 C36.04873047 170.4371875 37.02519531 170.468125 38.03125 170.5 C39.51334961 170.55800781 39.51334961 170.55800781 41.02539062 170.6171875 C43.4645361 170.71124344 45.90411747 170.79420186 48.34375 170.875 C48.67375 174.7 49.00375 179.65 49.34375 184.75 C41.12007274 184.8405653 32.89678673 184.91386722 24.6727438 184.95724869 C20.85349862 184.97807536 17.03461392 185.00630161 13.21557617 185.05175781 C9.52619473 185.09539325 5.83715883 185.11917408 2.14753914 185.12950897 C0.74377062 185.13686883 -0.65998014 185.15124091 -2.06360054 185.17292023 C-15.73160549 185.37552628 -15.73160549 185.37552628 -21.65625 180.75 C-25.52552941 176.34702687 -25.82004515 170.36732905 -26.65625 164.75 C-27.40648437 165.60722656 -28.15671875 166.2775 -27.6796875 167 C-37.67863301 179.73222127 -47.94268701 187.50065558 -64.0625 189.875 C-83.92863524 191.42428734 -105.42276853 190.34767132 -121.8046875 177.76953125 C-131.61892735 169.30948176 -139.17367315 159.03837065 -141.0625 145.875 C-142.03011867 127.84379826 -138.98160443 112.59755279 -126.6875 98.5625 C-125.16498696 96.98133068 -123.62390025 95.41778048 -122.0625 93.875 C-121.39863281 93.18921875 -120.73476562 92.5034375 -120.05078125 91.796875 C-99.52535665 71.9360832 -68.16997642 65.66561164 -40.6875 65.75 C-39.40488281 65.74613281 -38.12226562 65.74226562 -36.80078125 65.73828125 C-34.96966797 65.74021484 -34.96966797 65.74021484 -33.1015625 65.7421875 C-31.98990723 65.74331543 -30.87825195 65.74444336 -29.73291016 65.74560547 C-27.0625 65.875 -27.0625 65.875 -25.0625 66.875 C-24.65217856 37.28196069 -24.65217856 37.28196069 -37.98046875 11.81640625 C-45.18983616 5.10904508 -52.82348448 2.56454445 -62.609375 2.7265625 C-72.4267969 3.32061032 -81.89905177 6.12899759 -88.8125 13.4375 C-94.5481265 20.5935057 -98.08429784 29.27130488 -101.0625 37.875 C-106.0125 37.875 -110.9625 37.875 -116.0625 37.875 C-116.31657399 33.02962936 -116.53465114 28.20759552 -116.66674805 23.36083984 C-116.72179641 21.7171378 -116.79667216 20.07396798 -116.89233398 18.43212891 C-117.66382021 4.8424197 -117.66382021 4.8424197 -113.78686523 0.07910156 C-110.96845509 -2.00662254 -108.2191801 -3.60887469 -105.0625 -5.125 C-103.93199219 -5.76953125 -102.80148437 -6.4140625 -101.63671875 -7.078125 C-69.02230237 -21.73033913 -29.70253846 -20.60992465 0 0 Z M-81.4375 98.66015625 C-92.50044358 113.7387356 -94.84314867 131.97138927 -92.3125 150.1875 C-90.76668114 158.27906219 -88.15196982 163.51011041 -81.74609375 168.74609375 C-77.07269537 171.87976459 -71.43988378 171.36510815 -66.0625 170.875 C-58.68557936 169.12809728 -52.65285054 165.96365242 -47.0625 160.875 C-46.18851563 160.08222656 -46.18851563 160.08222656 -45.296875 159.2734375 C-29.00837542 142.61807983 -24.74822622 115.42450773 -24.875 93.125 C-24.91246838 90.37321542 -24.97847853 87.62592504 -25.0625 84.875 C-44.16685753 81.81929652 -67.51930016 83.37021075 -81.4375 98.66015625 Z " fill="#585858" transform="translate(1935.0625,676.125)"/>
<path d="M0 0 C1.57007813 0.5259375 1.57007813 0.5259375 3.171875 1.0625 C21.51951733 7.90721631 36.68206534 22.31762417 44.93896484 40.01220703 C50.30470632 52.46321332 52.35880517 64.33612324 52.375 77.875 C52.39949219 78.97585938 52.42398437 80.07671875 52.44921875 81.2109375 C52.47818773 89.16774987 52.47818773 89.16774987 50.1640625 93.1953125 C46.83672511 95.97009567 44.14823613 96.124514 39.96968079 96.12025452 C38.93061584 96.12162918 37.8915509 96.12300385 36.82099915 96.12442017 C35.68164413 96.12082489 34.54228912 96.11722961 33.3684082 96.11352539 C31.56821732 96.11374443 31.56821732 96.11374443 29.73165894 96.1139679 C26.44059468 96.1133902 23.149593 96.10837154 19.85853982 96.10139394 C16.41921946 96.0951468 12.97989828 96.09455552 9.54057312 96.09336853 C3.02766859 96.09025924 -3.48521917 96.08205125 -9.99811631 96.07201904 C-17.4127946 96.06084545 -24.82747368 96.05534431 -32.24215829 96.05032361 C-47.49478191 96.03986831 -62.74738879 96.02227662 -78 96 C-77.5450131 99.96424791 -77.08178646 103.92749303 -76.6171875 107.890625 C-76.48981201 109.00131348 -76.36243652 110.11200195 -76.23120117 111.25634766 C-73.48988464 134.50202869 -67.75118945 157.51111735 -50 174 C-38.9117675 182.57373568 -26.58485383 183.97227582 -13 183 C0.34631844 181.10690519 12.37802598 174.50144123 20.5390625 163.72265625 C24.19348926 158.73474818 27.65248836 153.70363909 30.6875 148.3125 C33.0748488 144.43617755 35.52199949 143.11950013 40 142 C44.84181022 141.96722971 48.73896104 142.66268066 53 145 C50.44689618 162.07388181 35.4863454 179.14266754 22.2421875 189.06640625 C1.09196917 203.01590922 -23.8086656 206.05805353 -48.5625 201.875 C-66.63935592 197.81808557 -81.63048292 189.9658194 -95 177 C-95.61230469 176.46117187 -96.22460938 175.92234375 -96.85546875 175.3671875 C-115.21446731 158.64663503 -122.65615216 131.20166723 -124.17285156 107.27294922 C-125.45620057 76.95248081 -118.87111971 46.8862623 -98 24 C-97.31421875 23.22140625 -96.6284375 22.4428125 -95.921875 21.640625 C-72.62603881 -3.38082869 -31.75914982 -11.22649017 0 0 Z M-61.08984375 26.48046875 C-72.59530285 41.67110283 -78 58.99538266 -78 78 C-49.95 78 -21.9 78 7 78 C7 60.29858798 5.4966598 39.69633914 -7 26 C-7.804375 25.0925 -8.60875 24.185 -9.4375 23.25 C-17.15476271 16.47386689 -26.25417357 13.56804395 -36.44140625 13.72265625 C-46.30814884 14.79218102 -54.72525725 18.92623991 -61.08984375 26.48046875 Z " fill="#585858" transform="translate(1384,664)"/>
<path d="M0 0 C8.22367726 -0.0905653 16.44696327 -0.16386722 24.6710062 -0.20724869 C27.97888189 -0.22807536 31.72935302 -0.25630161 35.47998047 -0.30175781 C39.10452862 -0.34539325 42.72872427 -0.36917408 46.35351562 -0.37950897 C47.73133894 -0.38686883 49.10914455 -0.40124091 50.48681641 -0.42292023 C65.22472616 -0.62774046 65.22472616 -0.62774046 71 4 C73.93717277 8.69947643 75.12295835 12.98519689 75.13028526 18.47347832 C75.13390961 19.36949159 75.13753396 20.26550485 75.14126813 21.18867004 C75.14019988 22.16900872 75.13913163 23.1493474 75.13803101 24.15939331 C75.14085229 25.20396702 75.14367357 26.24854073 75.14658034 27.32476819 C75.15493463 30.83614848 75.1562653 34.34749729 75.15771484 37.85888672 C75.16238238 40.37187794 75.16752585 42.88486832 75.17311096 45.39785767 C75.18439718 50.81513301 75.19287923 56.23240179 75.19923019 61.64968491 C75.20955905 70.21253255 75.23012301 78.77534144 75.25234985 87.33816528 C75.2598294 90.26802622 75.26724315 93.19788733 75.27463722 96.12774849 C75.27648779 96.85993983 75.27833835 97.59213118 75.280245 98.34651013 C75.3011696 106.68005898 75.31999943 115.0136121 75.33789062 123.34716797 C75.33952881 124.10892948 75.34116699 124.87069099 75.34285481 125.65553619 C75.3691444 138.00228765 75.38778588 150.3490421 75.40448253 162.69580971 C75.4219022 175.37247962 75.45074524 188.04909083 75.4893719 200.72571385 C75.5127703 208.54461205 75.52676632 216.36341454 75.52869953 224.18234803 C75.53105788 230.17354854 75.54892249 236.16459932 75.57256889 242.1557579 C75.57977704 244.61399372 75.58185556 247.07225064 75.57846642 249.53049469 C75.57458248 252.88275077 75.58899209 256.23444642 75.60800171 259.5866394 C75.60247201 260.56251664 75.59694232 261.53839388 75.59124506 262.54384315 C75.64255102 267.77452653 76.03515726 271.49344169 79 276 C85.09321432 280.77576258 92.96906913 280.24027334 100.375 280.5625 C101.30183594 280.60568359 102.22867187 280.64886719 103.18359375 280.69335938 C105.45558351 280.79876096 107.72777413 280.89981743 110 281 C110 285.95 110 290.9 110 296 C71.39 296 32.78 296 -7 296 C-7 291.05 -7 286.1 -7 281 C-5.49308594 280.95101563 -3.98617188 280.90203125 -2.43359375 280.8515625 C-0.43487882 280.77649339 1.56381825 280.70094738 3.5625 280.625 C5.0484668 280.57859375 5.0484668 280.57859375 6.56445312 280.53125 C15.6569592 280.35558429 15.6569592 280.35558429 23.7421875 276.66796875 C28.50076805 270.44899623 28.14627386 264.73293726 28.13371277 257.22061157 C28.1371111 255.73315699 28.1371111 255.73315699 28.14057809 254.21565282 C28.14691352 250.88936221 28.14608902 247.56311239 28.14526367 244.23681641 C28.14825543 241.85337776 28.151658 239.4699396 28.15544128 237.08650208 C28.16336477 231.28219808 28.16649585 225.47790648 28.16705366 219.67359735 C28.16752909 214.95504869 28.16958515 210.23650338 28.17275429 205.51795578 C28.18155902 192.13593506 28.18617392 178.75392236 28.18542381 165.37189873 C28.18536388 164.29013796 28.18536388 164.29013796 28.18530273 163.18652344 C28.18524141 162.10343987 28.18524141 162.10343987 28.18517885 160.99847583 C28.18477238 149.29586269 28.19434275 137.59328172 28.2084411 125.89067788 C28.22280759 113.87054159 28.22971114 101.85042099 28.22884732 89.83027589 C28.22851546 83.08346788 28.23125792 76.33669361 28.24202538 69.58989334 C28.25169653 63.24518517 28.25179224 56.9005483 28.24450874 50.55583763 C28.24346171 48.22701476 28.24583282 45.89818746 28.2518692 43.56937218 C28.25957511 40.39061586 28.25495344 37.21210663 28.24723816 34.03335571 C28.25238172 33.11165577 28.25752529 32.18995582 28.26282471 31.24032557 C28.23527711 26.1048331 27.6674059 21.86549943 26 17 C22.90049377 16.11126403 20.01495633 15.81456218 16.796875 15.68359375 C15.8171875 15.64169922 14.8375 15.59980469 13.828125 15.55664062 C12.81234375 15.51732422 11.7965625 15.47800781 10.75 15.4375 C9.71875 15.39431641 8.6875 15.35113281 7.625 15.30664062 C5.08348412 15.20074413 2.54175923 15.09988519 0 15 C0 10.05 0 5.1 0 0 Z " fill="#585858" transform="translate(1447,566)"/>
<path d="M0 0 C0 22.11 0 44.22 0 67 C24.42 67 48.84 67 74 67 C74 73.27 74 79.54 74 86 C49.58 86 25.16 86 0 86 C0.11979337 109.39459354 0.11979337 109.39459354 0.2578125 132.7890625 C0.31816594 142.33331105 0.37653777 151.87754172 0.421875 161.421875 C0.45490748 168.37388228 0.49480012 175.32581131 0.54279006 182.27773201 C0.56794365 185.95569815 0.58975721 189.63361313 0.60334396 193.31164169 C0.61867318 197.42646194 0.64932401 201.54103598 0.68115234 205.65576172 C0.68331253 206.86345718 0.68547272 208.07115265 0.68769836 209.31544495 C0.77989552 218.67127327 1.51399652 227.02341257 6.09765625 235.30859375 C7 237 7 237 8 240 C10.29534258 241.13545562 10.29534258 241.13545562 13 242 C13.74378906 242.3403125 14.48757813 242.680625 15.25390625 243.03125 C22.27382761 245.50769452 30.68511552 245.07585612 37.4375 242 C46.7789875 236.52395561 50.77594089 228.59985976 53.73046875 218.50390625 C55.21054596 213.52397796 56.36553319 210.85197958 61 208 C63.64458379 206.67770811 65.67761301 206.90322806 68.625 206.9375 C69.62789062 206.94652344 70.63078125 206.95554687 71.6640625 206.96484375 C72.82035156 206.98224609 72.82035156 206.98224609 74 207 C74.87274741 221.31952227 70.77750687 235.21916096 61.96484375 246.63671875 C51.6235639 257.69119032 37.96955807 263.69423221 22.97265625 264.34375 C20.77369456 264.38965359 18.57437734 264.42079751 16.375 264.4375 C15.33835205 264.44773193 14.3017041 264.45796387 13.23364258 264.46850586 C-2.40132641 264.29158091 -17.64162474 259.02974234 -29 248 C-41.14161358 234.26342897 -45.33702624 220.09042973 -45.22705078 202.13647461 C-45.22734283 200.87694977 -45.22763489 199.61742493 -45.22793579 198.31973267 C-45.22850575 194.89263065 -45.21680986 191.46567083 -45.20278788 188.03860164 C-45.19022045 184.4471744 -45.1891053 180.85574332 -45.18673706 177.26429749 C-45.18053986 170.47532511 -45.16415307 163.68641773 -45.14403808 156.89747387 C-45.12162405 149.16344325 -45.11067186 141.4294094 -45.10064721 133.69535434 C-45.07978512 117.79685893 -45.04313109 101.89845297 -45 86 C-56.88 86 -68.76 86 -81 86 C-81 79.73 -81 73.46 -81 67 C-78.97617188 66.96261719 -76.95234375 66.92523438 -74.8671875 66.88671875 C-72.89125062 66.83801608 -70.91531487 66.78920997 -68.93945312 66.73754883 C-67.5740075 66.70444614 -66.20842987 66.67636914 -64.84277344 66.65356445 C-62.87146776 66.61975009 -60.90053809 66.56591714 -58.9296875 66.51171875 C-57.74616699 66.48553467 -56.56264648 66.45935059 -55.34326172 66.43237305 C-50.96920066 65.86669011 -47.53774687 64.45231649 -44.3125 61.40625 C-38.14516345 52.44892786 -35.84433983 41.49815791 -32.91015625 31.16015625 C-29.94660488 20.96030273 -26.12660429 12.96842451 -17 7 C-3.39622642 0 -3.39622642 0 0 0 Z " fill="#585858" transform="translate(1545,232)"/>
<path d="M0 0 C1.03447266 -0.02900391 2.06894531 -0.05800781 3.13476562 -0.08789062 C11.19618114 -0.15351267 19.37348168 0.78704383 25.67773438 6.25585938 C31.40626643 12.32822615 33.00674182 18.18304238 32.8046875 26.43359375 C32.04440247 32.39455191 29.79056144 37.2525245 25.2421875 41.234375 C19.29973159 45.3529088 14.72489571 46.79832638 7.4375 46.3125 C1.34897782 44.89823698 -3.35871926 41.91770277 -7.5625 37.3125 C-11.07443445 31.45927592 -11.69260333 27.07787328 -11.5625 20.3125 C-19.5615936 21.06241503 -25.45381622 26.59509065 -30.421875 32.47265625 C-43.98989898 50.47257128 -52.04903227 70.25031895 -55.8125 92.375 C-55.97572754 93.33124268 -56.13895508 94.28748535 -56.30712891 95.27270508 C-58.75874688 110.71215438 -58.74891411 126.20265809 -58.74780273 141.79418945 C-58.75001094 145.26721068 -58.76829167 148.73992438 -58.78710938 152.21289062 C-58.79004038 154.44270726 -58.79202713 156.67252539 -58.79296875 158.90234375 C-58.80374702 160.44316872 -58.80374702 160.44316872 -58.81474304 162.01512146 C-58.7927675 168.95813296 -58.72853077 175.4657167 -54.375 181.1875 C-48.2006322 185.8525779 -41.08315969 185.69280303 -33.625 185.9375 C-32.1699707 185.99550781 -32.1699707 185.99550781 -30.68554688 186.0546875 C-28.31148602 186.14824655 -25.93702011 186.23142923 -23.5625 186.3125 C-23.5625 191.2625 -23.5625 196.2125 -23.5625 201.3125 C-62.1725 201.3125 -100.7825 201.3125 -140.5625 201.3125 C-140.5625 196.3625 -140.5625 191.4125 -140.5625 186.3125 C-139.14960937 186.27511719 -137.48671875 186.23773438 -135.7734375 186.19921875 C-133.57810292 186.13354635 -131.38279142 186.06709945 -129.1875 186 C-128.09308594 185.97744141 -126.99867187 185.95488281 -125.87109375 185.93164062 C-120.08925848 185.73891278 -115.85467095 185.43663582 -110.8125 182.3125 C-110.1525 182.3125 -109.4925 182.3125 -108.8125 182.3125 C-106.0581016 174.03745244 -105.3851909 166.51453267 -105.44018555 157.82983398 C-105.43653488 156.52755859 -105.43288422 155.2252832 -105.42912292 153.88354492 C-105.41979933 150.34428063 -105.42906612 146.80529704 -105.44245505 143.26605487 C-105.453862 139.54317921 -105.44965502 135.82031551 -105.44770813 132.09742737 C-105.44682816 125.84949213 -105.45784392 119.60166602 -105.47631836 113.35375977 C-105.49749068 106.15267632 -105.50099207 98.95175243 -105.4947564 91.75064415 C-105.48904228 84.79291476 -105.49473186 77.83524098 -105.50592995 70.87751961 C-105.51054795 67.93001326 -105.51146203 64.98254123 -105.5093441 62.03503227 C-105.50709353 57.91186188 -105.52163825 53.78891065 -105.5378418 49.66577148 C-105.53536438 48.45665604 -105.53288696 47.24754059 -105.53033447 46.00178528 C-105.57281492 39.20376702 -106.16800328 32.91613522 -107.8125 26.3125 C-113.71234316 24.6480947 -119.19816954 23.92649663 -125.3125 23.6875 C-126.13492187 23.64882813 -126.95734375 23.61015625 -127.8046875 23.5703125 C-129.8069701 23.47718308 -131.80970262 23.39381015 -133.8125 23.3125 C-133.8125 18.3625 -133.8125 13.4125 -133.8125 8.3125 C-126.1103835 8.26720368 -118.40831707 8.23055773 -110.70609951 8.20887566 C-107.12912968 8.19846609 -103.55225619 8.18435897 -99.9753418 8.16162109 C-96.51940535 8.13979129 -93.06356122 8.12791014 -89.60756111 8.12274551 C-87.65618467 8.10168907 -85.70484504 8.08590698 C-69.4513857 8.08410763 -69.4513857 8.08410763 -64 12.6875 C-60.56694792 16.80716249 -59.56969946 19.58691704 -59.3984375 24.953125 C-59.35976562 26.02304687 -59.32109375 27.09296875 -59.28125 28.1953125 C-59.2503125 29.30648438 -59.219375 30.41765625 -59.1875 31.5625 C-59.14882812 32.68914062 -59.11015625 33.81578125 -59.0703125 34.9765625 C-58.97612664 37.75504548 -58.89050414 40.53352334 -58.8125 43.3125 C-58.29042969 42.36890625 -57.76835938 41.4253125 -57.23046875 40.453125 C-52.03232947 31.29524079 -46.2948617 23.70773085 -38.8125 16.3125 C-38.06097656 15.55066406 -37.30945312 14.78882813 -36.53515625 14.00390625 C-26.19599106 4.11345709 -14.09426441 -0.04803771 0 0 Z " fill="#585858" transform="translate(2137.5625,660.6875)"/>
<path d="M0 0 C1.40088867 -0.02416992 1.40088867 -0.02416992 2.83007812 -0.04882812 C11.59802564 -0.05491275 20.18485457 1.23282072 26.71484375 7.53125 C31.67359511 13.52910311 32.86853992 19.77892202 32.56640625 27.44921875 C31.6430826 34.42649951 28.38217682 38.67051786 23.06640625 43.0859375 C17.37549075 46.801005 11.79874206 47.03778394 5.1875 46.3125 C-1.45977656 44.48594401 -6.0154607 39.91865498 -9.8125 34.3125 C-11.56960581 29.88153752 -12.14400313 26.06404484 -11.8125 21.3125 C-11.4825 20.6525 -11.1525 19.9925 -10.8125 19.3125 C-24.03180247 23.67378627 -30.59187616 31.79126772 -37.8125 43.3125 C-38.20115234 43.92802734 -38.58980469 44.54355469 -38.99023438 45.17773438 C-58.18290971 76.04463206 -58.95633136 112.07254817 -59.0625 147.375 C-59.0705365 148.90130035 -59.0705365 148.90130035 -59.07873535 150.45843506 C-59.0904885 153.4008187 -59.08696692 156.3427695 -59.078125 159.28515625 C-59.08207275 160.16241867 -59.08602051 161.03968109 -59.09008789 161.94352722 C-59.03994922 168.71049816 -58.58162495 175.34289741 -55.0625 181.25 C-49.50514987 186.34423762 -42.05703286 185.72707046 -34.9375 185.9375 C-33.33261719 185.99550781 -33.33261719 185.99550781 -30.68554688 186.0546875 C-28.31148602 186.14824655 -25.93702011 186.23142923 -23.5625 186.3125 C-23.5625 191.2625 -23.5625 196.2125 -23.5625 201.3125 C-62.1725 201.3125 -100.7825 201.3125 -140.5625 201.3125 C-140.5625 196.3625 -140.5625 191.4125 -140.5625 186.3125 C-139.14960937 186.27511719 -137.48671875 186.23773438 -135.7734375 186.19921875 C-133.57810292 186.13354635 -131.38279142 186.06709945 -129.1875 186 C-128.09308594 185.97744141 -126.99867187 185.95488281 -125.87109375 185.93164062 C-120.08925848 185.73891278 -115.85467095 185.43663582 -110.8125 182.3125 C-110.1525 182.3125 -109.4925 182.3125 -108.8125 182.3125 C-106.0581016 174.03745244 -105.3851909 166.51453267 -105.44018555 157.82983398 C-105.43653488 156.52755859 -105.43288422 155.2252832 -105.42912292 153.88354492 C-105.41979933 150.34428063 -105.42906612 146.80529704 -105.44245505 143.26605487 C-105.453862 139.54317921 -105.44965502 135.82031551 -105.44770813 132.09742737 C-105.44682816 125.84949213 -105.45784392 119.60166602 -105.47631836 113.35375977 C-105.49749068 106.15267632 -105.50099207 98.95175243 -105.4947564 91.75064415 C-105.48904228 84.79291476 -105.49473186 77.83524098 -105.50592995 70.87751961 C-105.51054795 67.93001326 -105.51146203 64.98254123 -105.5093441 62.03503227 C-105.50709353 57.91186188 -105.52163825 53.78891065 -105.5378418 49.66577148 C-105.53536438 48.45665604 -105.53288696 47.24754059 -105.53033447 46.00178528 C-105.57281492 39.20376702 -106.16800328 32.91613522 -107.8125 26.3125 C-113.71234316 24.6480947 -119.19816954 23.92649663 -125.3125 23.6875 C-126.13492187 23.64882813 -126.95734375 23.61015625 -127.8046875 23.5703125 C-129.8069701 23.47718308 -131.80970262 23.39381015 -133.8125 23.3125 C-133.8125 18.3625 -133.8125 13.4125 -133.8125 8.3125 C-126.1103835 8.26720368 -118.40831707 8.23055773 -110.70609951 8.20887566 C-107.12912968 8.19846609 -103.55225619 8.18435897 -99.9753418 8.16162109 C-96.51940535 8.13979129 -93.06356122 8.12791014 -89.60756111 8.12274551 C-87.65618467 8.11728568 -85.70484504 8.10168907 -83.75352478 8.08590698 C-69.4513857 8.08410763 -69.4513857 8.08410763 -64 12.6875 C-60.56694792 16.80716249 -59.56969946 19.58691704 -59.3984375 24.953125 C-59.35976562 26.02304687 -59.32109375 27.09296875 -59.28125 28.1953125 C-59.2503125 29.30648438 -59.219375 30.41765625 -59.1875 31.5625 C-59.14882812 32.68914062 -59.11015625 33.81578125 -59.0703125 34.9765625 C-58.97612664 37.75504548 -58.89050414 40.53352334 -58.8125 43.3125 C-58.29042969 42.36890625 -57.76835938 41.4253125 -57.23046875 40.453125 C-52.03232947 31.29524079 -46.2948617 23.70773085 -38.8125 16.3125 C-38.06097656 15.55066406 -37.30945312 14.78882813 -36.53515625 14.00390625 C-26.19599106 4.11345709 -14.09426441 -0.04803771 0 0 Z " fill="#585858" transform="translate(1776.8125,290.6875)"/>
<path d="M0 0 C7.68482443 -0.06799187 15.3695355 -0.12294015 23.05458832 -0.15543652 C26.62374621 -0.17103947 30.19268622 -0.19217818 33.76171875 -0.22631836 C37.21118793 -0.25910534 40.66044857 -0.27689332 44.11006165 -0.28463173 C46.05533736 -0.29280731 48.00053012 -0.31619545 49.94567871 -0.33988953 C64.4392351 -0.34262485 64.4392351 -0.34262485 69.54699707 4.45222473 C73.35933016 8.86710625 74.12540963 11.39580323 74.14476013 17.10903931 C74.15165863 18.41283539 74.15855713 19.71663147 74.16566467 21.05993652 C74.16837954 22.5134276 74.17101668 23.96691882 74.17358398 25.42041016 C74.17988754 26.94465322 74.18665312 28.46889443 74.19384766 29.99313354 C74.20853492 33.28125246 74.22025287 36.56936417 74.22979546 39.85750198 C74.24523477 45.06025789 74.26918582 50.26295271 74.29469299 55.46566772 C74.36592409 70.26239154 74.42559955 85.05915087 74.47680664 99.85595703 C74.50514864 108.02384309 74.54055441 116.19166889 74.58346039 124.35949171 C74.61018054 129.52721068 74.62811833 134.69486147 74.63949764 139.86263585 C74.64865285 143.08616756 74.66602906 146.3096169 74.68567657 149.53310013 C74.69312211 151.02295632 74.69723132 152.5128337 74.69767189 154.00270844 C74.62959425 164.67170893 74.62959425 164.67170893 77 175 C80.58925377 177.39230757 84.37778521 177.29802151 88.61328125 177.4140625 C90.4840332 177.47207031 90.4840332 177.47207031 92.39257812 177.53125 C93.68615234 177.5621875 94.97972656 177.593125 96.3125 177.625 C97.62541016 177.66367187 98.93832031 177.70234375 100.29101562 177.7421875 C103.52711551 177.83632859 106.76353834 177.91924784 110 178 C110 182.95 110 187.9 110 193 C71.39 193 32.78 193 -7 193 C-7 188.05 -7 183.1 -7 178 C-5.03675781 177.95101562 -3.07351563 177.90203125 -1.05078125 177.8515625 C1.52865992 177.77652421 4.10808631 177.70097684 6.6875 177.625 C8.62786133 177.57859375 8.62786133 177.57859375 10.60742188 177.53125 C11.85458984 177.49257813 13.10175781 177.45390625 14.38671875 177.4140625 C15.53358154 177.3826416 16.68044434 177.3512207 17.86206055 177.31884766 C21.19363148 176.980325 24.54135564 176.45864436 27 174 C28.22228527 166.87968028 28.14788546 159.79050106 28.14526367 152.58251953 C28.14826057 151.23797513 28.15166431 149.89343159 28.15544128 148.54888916 C28.16423058 144.91657125 28.16661722 141.28427693 28.16725707 137.65194941 C28.16797035 135.37771392 28.17010989 133.10348435 28.17275429 130.82925034 C28.18199027 122.881443 28.18609128 114.93365237 28.18530273 106.98583984 C28.18470211 99.59908522 28.19525541 92.21240365 28.2110464 84.8256675 C28.22415632 78.4644649 28.2294852 72.10328608 28.22884732 65.74207008 C28.22859339 61.95129246 28.23138651 58.16057988 28.24202538 54.36981583 C28.25176494 50.80254628 28.25174577 47.23540319 28.24450874 43.66812897 C28.24297853 41.74974448 28.25126813 39.83135984 28.25994873 37.91299438 C28.23514808 31.03455086 27.6788107 24.67944932 26 18 C20.10015684 16.3355947 14.61433046 15.61399663 8.5 15.375 C7.67757813 15.33632813 6.85515625 15.29765625 6.0078125 15.2578125 C4.0055299 15.16468308 2.00279738 15.08131015 0 15 C0 10.05 0 5.1 0 0 Z " fill="#585858" transform="translate(1364,299)"/>
<path d="M0 0 C5.56417485 3.99957447 9.44956275 9.30284502 11 16 C12.0509432 25.03765155 12.17762345 34.19084515 7 42 C6.29875 43.0725 5.5975 44.145 4.875 45.25 C-1.73061347 51.56841288 -9.75265464 54.3319105 -18.83203125 54.14453125 C-27.47760504 53.56815966 -34.6247979 50.73714096 -40.60546875 44.26171875 C-46.87400603 35.97107267 -47.16117773 26.00212803 -46 16 C-43.97861839 8.5725978 -39.39128405 3.17579357 -33 -1 C-22.85136479 -6.39206425 -9.9182482 -5.36378862 0 0 Z " fill="#585858" transform="translate(1431,217)"/>
<path d="M0 0 C2.62756047 0.97595103 4.85643178 1.89650571 7.1394043 3.54223633 C10.92993274 5.47389506 14.42052165 5.4777801 18.58203125 5.51171875 C19.80329964 5.53864555 19.80329964 5.53864555 21.04924011 5.56611633 C23.63694152 5.6200821 26.22445993 5.65407025 28.8125 5.6875 C30.57229101 5.72068528 32.33205792 5.75517606 34.09179688 5.79101562 C38.39439893 5.87580042 42.69694801 5.94267665 47 6 C47 6.33 47 6.66 47 7 C34.06012715 7.02365509 21.12025981 7.04117544 8.18036938 7.05181217 C2.16540425 7.05692911 -3.84954562 7.06380957 -9.86450195 7.07543945 C-43.25615988 7.13830572 -76.61760102 6.79981422 -110 6 C-110.33 5.01 -110.66 4.02 -111 3 C-74.04 3 -37.08 3 1 3 C0.505 1.515 0.505 1.515 0 0 Z " fill="#3D91C1" transform="translate(384,557)"/>
<path d="M0 0 C0.33 0 0.66 0 1 0 C1 18.15 1 36.3 1 55 C18.16 55 35.32 55 53 55 C53 55.33 53 55.66 53 56 C-33.28 56 -71.56 56 -111 56 C-111 55.67 -111 55.34 -111 55 C-74.04 55 -37.08 55 1 55 C0.505 53.515 0.505 53.515 0 52 C0 50.485 0 48.97 0 47.455 C0 45.94 0 44.425 0 42.91 C0 41.395 0 39.88 0 38.365 C0 36.85 0 35.335 0 33.82 C0 32.305 0 30.79 0 29.275 C0 27.76 0 26.245 0 24.73 C0 23.215 0 21.7 0 20.185 C0 18.67 0 17.155 0 15.64 C0 14.125 0 12.61 0 11.095 C0 9.58 0 8.065 0 6.55 C0 5.035 0 3.52 0 2.005 C0 0.49 0 0 0 0 Z " fill="#BD1D72" transform="translate(574,239)"/>
<path d="M0 0 C1.65 0.66 3.3 1.32 5 2 C5 2.66 5 3.32 5 4 C-33.28 4 -71.56 4 -111 4 C-111 3.67 -111 3.34 -111 3 C-74.04 3 -37.08 3 1 3 C0.505 1.515 0.505 1.515 0 0 Z " fill="#318CC0" transform="translate(384,557)"/>
<path d="M0 0 C0.99 0 1.98 0 3 0 C2.03644647 14.78132118 2.03644647 14.78132118 1 21 C0.67 21 0.34 21 0 21 C0 14.07 0 7.14 0 0 Z " fill="#E25C26" transform="translate(413,636)"/>
<path d="M0 0 C4.21654356 1.48635116 7.62478605 3.61249159 11.3125 6.125 C12.38113281 6.84945313 13.44976562 7.57390625 14.55078125 8.3203125 C15.76314453 9.15175781 15.76314453 9.15175781 17 10 C16.67 10.99 16.34 11.98 16 13 C15.34773438 12.46890625 14.69546875 11.9378125 14.0234375 11.390625 C8.35275819 6.76873219 8.35275819 6.76873219 2.375 2.5625 C1.59125 2.046875 0.8075 1.53125 0 1 C0 0.67 0 0.34 0 0 Z " fill="#3C81BE" transform="translate(491,339)"/>
<path d="M0 0 C0.66 0 1.32 0 2 0 C2 2.64 2 5.28 2 8 C0.68 8 -0.64 8 -2 8 C-1.47731534 5.23723823 -0.89130413 2.6739124 0 0 Z " fill="#D5176D" transform="translate(573,286)"/>
</svg>
